<svg width="140" height="126" viewBox="0 0 140 126" fill="none" xmlns="http://www.w3.org/2000/svg">
<g id="bear 1" clip-path="url(#clip0_3_0)">
<path id="Vector" d="M116.03 41.2999C128.136 41.2999 137.949 32.4678 137.949 21.5728C137.949 10.6778 128.136 1.8457 116.03 1.8457C103.925 1.8457 94.1113 10.6778 94.1113 21.5728C94.1113 32.4678 103.925 41.2999 116.03 41.2999Z" fill="#C38C66"/>
<path id="Vector_2" d="M116.03 33.4091C123.294 33.4091 129.182 28.1098 129.182 21.5727C129.182 15.0357 123.294 9.73633 116.03 9.73633C108.767 9.73633 102.879 15.0357 102.879 21.5727C102.879 28.1098 108.767 33.4091 116.03 33.4091Z" fill="#F4DBB3"/>
<path id="Vector_3" d="M23.9698 41.2999C36.0753 41.2999 45.8888 32.4678 45.8888 21.5728C45.8888 10.6778 36.0753 1.8457 23.9698 1.8457C11.8643 1.8457 2.05078 10.6778 2.05078 21.5728C2.05078 32.4678 11.8643 41.2999 23.9698 41.2999Z" fill="#B57F5F"/>
<path id="Vector_4" d="M23.9699 33.4091C31.2333 33.4091 37.1214 28.1098 37.1214 21.5727C37.1214 15.0357 31.2333 9.73633 23.9699 9.73633C16.7065 9.73633 10.8184 15.0357 10.8184 21.5727C10.8184 28.1098 16.7065 33.4091 23.9699 33.4091Z" fill="#EAC89F"/>
<path id="Vector_5" d="M69.9998 124.154C103.895 124.154 131.373 99.424 131.373 68.9179C131.373 38.4117 103.895 13.6816 69.9998 13.6816C36.1041 13.6816 8.62622 38.4117 8.62622 68.9179C8.62622 99.424 36.1041 124.154 69.9998 124.154Z" fill="#C38C66"/>
<path id="Vector_6" d="M98.4949 86.6728C98.4949 100.836 85.7374 112.318 70 112.318C54.2626 112.318 42.2896 100.13 42.2896 85.967C42.2896 71.8035 54.2628 61.0273 70 61.0273C85.7371 61.0273 98.4949 72.5091 98.4949 86.6728Z" fill="#F4DBB3"/>
<path id="Vector_7" d="M42.601 61.0275C45.6274 61.0275 48.0807 58.8195 48.0807 56.0958C48.0807 53.3721 45.6274 51.1641 42.601 51.1641C39.5747 51.1641 37.1213 53.3721 37.1213 56.0958C37.1213 58.8195 39.5747 61.0275 42.601 61.0275Z" fill="#4B3F4E"/>
<path id="Vector_8" d="M97.3989 61.0275C100.425 61.0275 102.879 58.8195 102.879 56.0958C102.879 53.3721 100.425 51.1641 97.3989 51.1641C94.3725 51.1641 91.9192 53.3721 91.9192 56.0958C91.9192 58.8195 94.3725 61.0275 97.3989 61.0275Z" fill="#4B3F4E"/>
<path id="Vector_9" d="M75.4795 119.222C41.584 119.222 14.1059 94.4923 14.1059 63.9863C14.1059 49.9884 19.9025 37.2159 29.4387 27.4814C16.6828 37.6033 8.62598 52.4098 8.62598 68.918C8.62625 99.424 36.1043 124.154 69.9998 124.154C88.3423 124.154 104.794 116.903 116.04 105.423C105.225 114.005 91.0327 119.222 75.4795 119.222Z" fill="#B57F5F"/>
<path id="Vector_10" d="M74.3838 108.373C58.6466 108.373 45.8889 96.8909 45.8889 82.7272C45.8889 76.6509 48.2489 71.0771 52.1727 66.6826C45.6742 71.383 41.5051 78.5852 41.5051 86.6726C41.5051 100.836 54.2626 112.318 70 112.318C78.986 112.318 86.9884 108.566 92.2111 102.717C87.3286 106.249 81.1352 108.373 74.3838 108.373Z" fill="#EAC89F"/>
<path id="Vector_11" d="M60.6947 78.298L65.3503 82.488C67.9181 84.799 72.0818 84.799 74.6499 82.488L79.3054 78.298C80.7249 77.0205 79.7194 74.8364 77.7124 74.8364H62.2883C60.2805 74.8364 59.2753 77.0205 60.6947 78.298Z" fill="#4B3F4E"/>
<path id="Vector_12" d="M140 21.5728C140 9.67764 129.247 0 116.03 0C105.288 0 95.8625 6.50623 92.9715 15.6801C85.7443 13.1564 77.9852 11.8361 70 11.8361C62.0148 11.8361 54.2557 13.1564 47.0285 15.6801C44.1375 6.50623 34.7121 0 23.9698 0C10.7529 0 0 9.67764 0 21.5728C0 30.269 5.70992 37.9745 14.4257 41.3649C9.30262 49.7065 6.57562 59.123 6.57562 68.9181C6.57562 84.1653 13.1729 98.4998 25.1521 109.281C37.1314 120.062 53.0586 126 70 126C86.9414 126 102.869 120.062 114.848 109.281C126.827 98.4998 133.424 84.1653 133.424 68.9181C133.424 59.123 130.697 49.7063 125.574 41.3644C134.29 37.9747 140 30.269 140 21.5728ZM116.03 3.69141C126.985 3.69141 135.898 11.7131 135.898 21.5728C135.898 28.9431 130.952 35.456 123.453 38.1635C122.585 36.9458 121.662 35.7555 120.686 34.5939C126.817 32.8087 131.232 27.5992 131.232 21.5728C131.232 19.531 130.73 17.5497 129.738 15.6838C129.25 14.7644 128.026 14.3753 127.003 14.8151C125.981 15.2549 125.549 16.3569 126.038 17.2765C126.763 18.6409 127.131 20.0864 127.131 21.5728C127.131 26.4831 123.119 30.6517 117.83 31.4311C116.876 30.4477 115.883 29.4872 114.848 28.5552C111.786 25.8002 108.466 23.3636 104.938 21.2593C105.123 15.8954 110.026 11.5824 116.03 11.5824C117.681 11.5824 119.287 11.9134 120.804 12.5658C121.826 13.0058 123.05 12.6165 123.538 11.6968C124.027 10.7772 123.595 9.67518 122.573 9.23565C120.499 8.34356 118.298 7.891 116.03 7.891C108.574 7.891 102.36 12.7481 101.076 19.1308C99.6704 18.4174 98.2357 17.7554 96.7764 17.1431C98.998 9.29964 106.948 3.69141 116.03 3.69141ZM4.10156 21.5728C4.10156 11.7131 13.0145 3.69141 23.9698 3.69141C33.0523 3.69141 41.002 9.29964 43.2228 17.1429C41.7638 17.7552 40.3293 18.4169 38.9236 19.1301C37.6398 12.7479 31.4256 7.89075 23.9698 7.89075C15.5873 7.89075 8.7675 14.0283 8.7675 21.5728C8.7675 27.5994 13.1846 32.806 19.3162 34.5909C18.3397 35.7537 17.4155 36.9448 16.5462 38.1635C9.0475 35.456 4.10156 28.9431 4.10156 21.5728ZM22.1698 31.4311C16.8815 30.6517 12.8693 26.4831 12.8693 21.5728C12.8693 16.064 17.8489 11.5822 23.9701 11.5822C29.9742 11.5822 34.877 15.8952 35.0621 21.2591C31.5342 23.3634 28.2138 25.8 25.1524 28.555C24.1166 29.4872 23.1241 30.4477 22.1698 31.4311ZM111.947 106.671C100.743 116.755 85.8457 122.309 70 122.309C54.1543 122.309 39.2571 116.755 28.0525 106.671C16.8479 96.5869 10.6775 83.1794 10.6775 68.9183C10.6775 54.6572 16.8481 41.2497 28.0525 31.1656C39.2571 21.0814 54.1543 15.5278 70 15.5278C85.8457 15.5278 100.743 21.0814 111.947 31.1656C123.152 41.2497 129.323 54.6572 129.323 68.9183C129.323 83.1794 123.152 96.5866 111.947 106.671Z" fill="black"/>
<path id="Vector_13" d="M63.4243 92.7178C60.9291 92.7178 58.8994 90.8908 58.8994 88.6452C58.8994 87.6259 57.9812 86.7995 56.8486 86.7995C55.7161 86.7995 54.7979 87.6259 54.7979 88.6452C54.7979 92.9263 58.6675 96.4092 63.4243 96.4092C66.0569 96.4092 68.4164 95.3412 69.9999 93.6626C71.5836 95.3412 73.9428 96.4092 76.5755 96.4092C81.3322 96.4092 85.2019 92.9263 85.2019 88.6452C85.2019 87.6259 84.2837 86.7995 83.1511 86.7995C82.0185 86.7995 81.1003 87.6259 81.1003 88.6452C81.1003 90.8908 79.0706 92.7178 76.5755 92.7178C74.0804 92.7178 72.0507 90.8908 72.0507 88.6452V85.8422C73.5354 85.5174 74.9425 84.8345 76.0997 83.793L80.755 79.603C81.9904 78.4912 82.3565 76.8345 81.688 75.3818C81.0194 73.9293 79.4586 72.9907 77.7116 72.9907H62.2876C60.5406 72.9907 58.9798 73.9293 58.3112 75.3818C57.6427 76.8345 58.0091 78.4914 59.2442 79.603L63.8995 83.793C65.0567 84.8345 66.4638 85.5176 67.9485 85.8425V88.6455C67.9491 90.8908 65.9194 92.7178 63.4243 92.7178ZM62.1448 76.9929C62.1068 76.9587 62.0491 76.9068 62.1011 76.7944C62.1528 76.6819 62.234 76.6819 62.2878 76.6819H77.7119C77.7658 76.6819 77.847 76.6819 77.8987 76.7944C77.9503 76.9068 77.8929 76.9585 77.8549 76.9929L73.1996 81.1829C71.4354 82.7705 68.5649 82.7707 66.8004 81.1829L62.1448 76.9929Z" fill="black"/>
<path id="Vector_14" d="M43.6422 84.9282C44.0936 79.2398 46.8135 73.8828 51.3009 69.8441C55.7883 65.8055 61.7407 63.3576 68.0612 62.9511C74.3139 62.5502 80.5355 64.1554 85.5749 67.475C86.4887 68.0769 87.772 67.8983 88.4408 67.0756C89.1096 66.2531 88.9111 65.0982 87.997 64.4963C82.1747 60.6614 74.9907 58.8049 67.7687 59.2693C60.4641 59.7388 53.5855 62.5674 48.4003 67.2341C43.2154 71.9005 40.0722 78.0912 39.5505 84.6654C39.0345 91.1652 41.0973 97.6308 45.3583 102.871C45.76 103.365 46.3831 103.627 47.0148 103.627C47.435 103.627 47.8591 103.511 48.2245 103.27C49.1383 102.668 49.3371 101.513 48.6682 100.691C44.9807 96.155 43.1957 90.5571 43.6422 84.9282Z" fill="black"/>
<path id="Vector_15" d="M91.7749 70.0755C90.8608 70.6775 90.6623 71.8324 91.3311 72.6548C95.0192 77.1906 96.8045 82.7885 96.3577 88.4174C95.9063 94.1058 93.1864 99.4628 88.699 103.501C84.2116 107.54 78.2592 109.988 71.9386 110.395C65.6865 110.796 59.4644 109.19 54.425 105.871C53.5111 105.269 52.2276 105.447 51.5591 106.27C50.8902 107.092 51.0888 108.247 52.0029 108.849C57.2384 112.298 63.5747 114.146 70.05 114.146C70.7757 114.146 71.5033 114.123 72.2312 114.076C79.5358 113.607 86.4144 110.778 91.5996 106.112C96.7848 101.445 99.9277 95.2544 100.449 88.6802C100.965 82.1804 98.9026 75.7148 94.6416 70.4747C93.9717 69.6522 92.6885 69.4738 91.7749 70.0755Z" fill="black"/>
<path id="Vector_16" d="M50.1318 56.0953C50.1318 52.3581 46.7537 49.3179 42.601 49.3179C38.4486 49.3179 35.0706 52.3581 35.0706 56.0953C35.0706 59.8325 38.4486 62.873 42.601 62.873C46.7535 62.873 50.1318 59.8325 50.1318 56.0953ZM39.1721 56.0953C39.1721 54.3936 40.7102 53.0093 42.601 53.0093C44.4918 53.0093 46.0302 54.3936 46.0302 56.0953C46.0302 57.797 44.4921 59.1816 42.601 59.1816C40.7105 59.1816 39.1721 57.797 39.1721 56.0953Z" fill="black"/>
<path id="Vector_17" d="M97.3989 49.3179C93.2465 49.3179 89.8682 52.3581 89.8682 56.0953C89.8682 59.8325 93.2462 62.873 97.3989 62.873C101.551 62.873 104.929 59.8327 104.929 56.0953C104.929 52.3584 101.551 49.3179 97.3989 49.3179ZM97.3989 59.1816C95.5081 59.1816 93.9697 57.7973 93.9697 56.0953C93.9697 54.3936 95.5078 53.0093 97.3989 53.0093C99.2897 53.0093 100.828 54.3936 100.828 56.0953C100.828 57.797 99.2895 59.1816 97.3989 59.1816Z" fill="black"/>
</g>
<defs>
<clipPath id="clip0_3_0">
<rect width="140" height="126" fill="white"/>
</clipPath>
</defs>
</svg>
