<svg width="465" height="400" viewBox="0 0 465 400" fill="none" xmlns="http://www.w3.org/2000/svg">
<path d="M210.703 350H188.906L130.781 250V231.25H210.703V350Z" fill="#91591C"/>
<path d="M223.452 68.7499C228.892 62.8936 235.797 58.1669 243.653 54.9209C251.508 51.6749 260.113 49.9929 268.828 50H303.111C312.68 50 322.101 52.0322 330.538 55.9163C338.975 59.8003 346.166 65.416 351.474 72.265L363.281 87.5001L399.609 187.5V318.75C407.317 318.75 414.709 321.384 420.16 326.072C425.61 330.761 428.672 337.12 428.672 343.75V350H348.75L319.688 237.5C306.588 243.134 295.571 251.795 287.872 262.512C280.172 273.228 276.094 285.578 276.094 298.176V319.538C282.332 320.925 287.858 324.056 291.804 328.439C295.749 332.821 297.89 338.207 297.891 343.75V350H210.703V268.75H196.172C171.792 268.778 148.35 260.669 130.781 246.13L130.781 246.13V319.538L130.781 319.538C137.02 320.925 142.546 324.056 146.491 328.439C150.437 332.821 152.578 338.207 152.578 343.75V350H65.3906V318.75L29.7814 262.592C24.5422 254.33 21.7969 245.068 21.7969 235.657V175C21.7969 146.821 34.8101 119.796 57.9738 99.8699C81.1374 79.9442 112.554 68.75 145.312 68.75L223.452 68.7499Z" fill="#B1712C"/>
<path d="M341.484 125H301.523C296.706 125 292.086 123.354 288.679 120.424C285.273 117.493 283.359 113.519 283.359 109.375C283.359 105.231 285.273 101.257 288.679 98.3265C292.086 95.3962 296.706 93.75 301.523 93.75H341.484V125Z" fill="#A36522"/>
<path d="M385.078 125H425.039C429.856 125 434.477 123.354 437.883 120.424C441.289 117.493 443.203 113.519 443.203 109.375C443.203 105.231 441.289 101.257 437.883 98.3265C434.477 95.3962 429.856 93.75 425.039 93.75H385.078V125Z" fill="#A36522"/>
<path d="M428.672 143.75V156.25C428.672 160.131 427.621 163.959 425.604 167.43C423.586 170.902 420.656 173.921 417.047 176.25L399.609 187.5V193.75C399.609 202.038 395.782 209.987 388.969 215.847C382.156 221.708 372.916 225 363.281 225C353.646 225 344.406 221.708 337.593 215.847C330.781 209.987 326.953 202.038 326.953 193.75V187.5L309.516 176.25C305.906 173.921 302.977 170.902 300.959 167.43C298.941 163.959 297.891 160.131 297.891 156.25V143.75C297.891 128.832 304.78 114.524 317.043 103.975C329.306 93.4263 345.939 87.5 363.281 87.5H363.281C380.624 87.5 397.256 93.4263 409.519 103.975C421.783 114.524 428.672 128.832 428.672 143.75Z" fill="#C78640"/>
<path d="M370.547 175H356.016C354.777 175 353.559 175.272 352.477 175.791C351.396 176.31 350.486 177.058 349.835 177.964C349.184 178.871 348.813 179.905 348.757 180.969C348.702 182.034 348.963 183.093 349.517 184.045L356.783 196.545C357.386 197.583 358.314 198.457 359.462 199.067C360.609 199.677 361.932 200 363.281 200C364.631 200 365.953 199.677 367.101 199.067C368.249 198.457 369.176 197.583 369.78 196.545L377.045 184.045C377.599 183.093 377.861 182.034 377.805 180.969C377.75 179.905 377.379 178.871 376.728 177.964C376.076 177.058 375.167 176.31 374.085 175.791C373.003 175.272 371.785 175 370.547 175Z" fill="black"/>
<path d="M341.484 156.25C345.497 156.25 348.75 153.452 348.75 150C348.75 146.548 345.497 143.75 341.484 143.75C337.472 143.75 334.219 146.548 334.219 150C334.219 153.452 337.472 156.25 341.484 156.25Z" fill="black"/>
<path d="M385.078 156.25C389.091 156.25 392.344 153.452 392.344 150C392.344 146.548 389.091 143.75 385.078 143.75C381.065 143.75 377.812 146.548 377.812 150C377.812 153.452 381.065 156.25 385.078 156.25Z" fill="black"/>
<path d="M425.039 87.5H394.928C386.27 83.8803 376.857 81.788 367.244 81.3465L357.519 68.7981C351.556 61.0859 343.468 54.7627 333.975 50.3923C324.481 46.0219 313.878 43.74 303.111 43.75H268.828C259.635 43.748 250.545 45.4174 242.155 48.6487C233.764 51.88 226.263 56.6002 220.141 62.5H145.312C73.1995 62.5 14.5312 112.967 14.5312 175V235.657C14.5404 246.113 17.5903 256.402 23.4031 265.585L58.125 320.344V350C58.125 351.658 58.8905 353.247 60.2531 354.419C61.6156 355.592 63.4637 356.25 65.3906 356.25H152.578C154.505 356.25 156.353 355.592 157.716 354.419C159.078 353.247 159.844 351.658 159.844 350V343.75C159.836 337.672 157.77 331.728 153.9 326.643C150.029 321.558 144.52 317.553 138.047 315.117V276.476L182.408 352.795C183.011 353.834 183.939 354.707 185.087 355.317C186.234 355.927 187.557 356.25 188.906 356.25H297.891C299.818 356.25 301.666 355.592 303.028 354.419C304.391 353.247 305.156 351.658 305.156 350V343.75C305.148 337.672 303.083 331.728 299.212 326.643C295.341 321.558 289.833 317.553 283.359 315.117V298.177C283.318 288.115 286.161 278.2 291.636 269.308C297.112 260.417 305.051 252.824 314.751 247.202L341.657 351.356C342.016 352.744 342.914 353.985 344.204 354.875C345.493 355.765 347.097 356.25 348.75 356.25H428.672C430.599 356.25 432.447 355.592 433.809 354.419C435.172 353.247 435.937 351.658 435.938 350V343.75C435.927 336.549 433.03 329.572 427.736 323.994C422.442 318.416 415.074 314.579 406.875 313.129V190.625L421.406 181.25C425.908 178.331 429.563 174.555 432.084 170.218C434.605 165.88 435.924 161.099 435.938 156.25V143.75C435.934 139.059 435.315 134.384 434.093 129.812C439.65 127.991 444.288 124.553 447.203 120.096C450.118 115.638 451.125 110.443 450.049 105.413C448.972 100.383 445.881 95.8362 441.312 92.5637C436.742 89.2911 430.985 87.4994 425.039 87.5ZM147.118 264.131C162.132 271.276 179.013 275.017 196.172 275H203.438V343.75H193.397L147.118 264.131ZM421.406 343.75H354.578L326.78 236.144C326.541 235.217 326.059 234.349 325.371 233.606C324.683 232.863 323.807 232.265 322.81 231.857C321.813 231.449 320.721 231.241 319.617 231.25C318.513 231.26 317.426 231.485 316.438 231.91C302.097 238.026 290.036 247.476 281.621 259.188C273.205 270.901 268.774 284.408 268.828 298.177V312.5H247.031V325H268.828C274.607 325.006 280.147 326.983 284.234 330.498C288.32 334.013 290.618 338.779 290.625 343.75H217.969V156.25H203.438V262.5H196.172C173.056 262.478 150.895 254.569 134.55 240.508C118.205 226.448 109.011 207.384 108.984 187.5V181.25H94.4531V187.5C94.4371 210.38 104.875 232.349 123.516 248.67V312.5H101.719V325H123.516C129.295 325.006 134.835 326.983 138.921 330.498C143.007 334.013 145.306 338.779 145.312 343.75H72.6562V318.75C72.6562 317.704 72.3511 316.675 71.7689 315.757L36.1601 259.599C31.5097 252.253 29.0697 244.022 29.0625 235.657V175C29.0974 148.488 41.3563 123.07 63.1499 104.322C84.9434 85.5754 114.492 75.03 145.312 75H210.274C205.77 82.7639 203.43 91.3232 203.438 100H217.969C217.984 88.4008 223.347 77.2804 232.882 69.0786C242.417 60.8767 255.344 56.2631 268.828 56.25H303.111C311.486 56.2423 319.732 58.0171 327.116 61.4163C334.5 64.8155 340.791 69.7334 345.429 75.7317L350.474 82.2421C343.943 83.2406 337.603 85.0099 331.634 87.5H301.523C295.578 87.4994 289.82 89.2911 285.251 92.5637C280.682 95.8362 277.59 100.383 276.514 105.413C275.438 110.443 276.444 115.638 279.359 120.096C282.274 124.553 286.913 127.991 292.469 129.812C291.247 134.384 290.629 139.059 290.625 143.75V156.25C290.638 161.099 291.957 165.88 294.478 170.218C296.999 174.555 300.654 178.331 305.156 181.25L319.688 190.625V193.75C319.682 200.991 322.115 208.079 326.693 214.155C331.271 220.232 337.798 225.037 345.483 227.991C353.169 230.944 361.685 231.919 370.001 230.798C378.317 229.676 386.078 226.506 392.344 221.671V312.5H377.812V325H399.609C405.388 325.006 410.929 326.983 415.015 330.498C419.101 334.013 421.4 338.779 421.406 343.75ZM297.132 117.948C294.843 117.082 292.97 115.565 291.828 113.652C290.686 111.739 290.344 109.546 290.859 107.441C291.374 105.336 292.715 103.448 294.657 102.093C296.598 100.738 299.023 99.9991 301.523 100H311.46C305.504 105.219 300.655 111.293 297.132 117.948ZM421.406 156.25C421.398 159.16 420.607 162.028 419.094 164.63C417.581 167.233 415.389 169.498 412.687 171.249L395.25 182.5C394.348 183.082 393.615 183.837 393.111 184.705C392.607 185.573 392.344 186.53 392.344 187.5V193.75C392.344 200.38 389.282 206.739 383.832 211.428C378.381 216.116 370.989 218.75 363.281 218.75C355.573 218.75 348.181 216.116 342.731 211.428C337.281 206.739 334.219 200.38 334.219 193.75V187.5C334.219 186.53 333.956 185.573 333.451 184.705C332.947 183.837 332.215 183.082 331.312 182.5L313.875 171.249C311.174 169.498 308.981 167.233 307.468 164.63C305.956 162.028 305.164 159.16 305.156 156.25V143.75C305.156 130.489 311.28 117.772 322.181 108.395C333.081 99.0179 347.866 93.75 363.281 93.75C378.697 93.75 393.481 99.0179 404.382 108.395C415.282 117.772 421.406 130.489 421.406 143.75V156.25ZM429.431 117.948C425.907 111.293 421.058 105.219 415.102 100H425.039C427.539 99.9991 429.964 100.738 431.906 102.093C433.848 103.448 435.189 105.336 435.704 107.441C436.219 109.546 435.877 111.739 434.734 113.652C433.592 115.565 431.719 117.082 429.431 117.948Z" fill="black"/>
<path d="M217.969 118.75H203.438V137.5H217.969V118.75Z" fill="black"/>
</svg>
