<svg width="140" height="126" viewBox="0 0 140 126" fill="none" xmlns="http://www.w3.org/2000/svg">
<g id="cat 1">
<path id="Vector" d="M19.9992 2.73992C17.1252 0.638048 12.8281 2.47906 12.8281 5.81164V58.8459L61.2043 33.1185L19.9992 2.73992Z" fill="#FFC850"/>
<path id="Vector_2" d="M12.8281 54.0008L39.2152 34.7052L12.8281 7.95605V54.0008Z" fill="#EBAF4B"/>
<path id="Vector_3" d="M120.001 2.73992C122.875 0.638048 127.172 2.47906 127.172 5.81164V58.8459L78.7959 33.1185L120.001 2.73992Z" fill="#FFC850"/>
<path id="Vector_4" d="M127.172 54.0008L100.785 34.7052L127.172 7.95605V54.0008Z" fill="#EBAF4B"/>
<path id="Vector_5" d="M69.9996 124.153C104.003 124.153 131.569 100.673 131.569 71.7088C131.569 42.7444 104.003 19.2642 69.9996 19.2642C35.9958 19.2642 8.43018 42.7444 8.43018 71.7088C8.43018 100.673 35.9958 124.153 69.9996 124.153Z" fill="#FFDC64"/>
<path id="Vector_6" d="M78.7958 104.363V108.322C78.7958 112.694 74.8578 116.238 70.0002 116.238C65.1423 116.238 61.2046 112.693 61.2046 108.322V104.363L69.9999 100.405L78.7958 104.363Z" fill="#FF8087"/>
<path id="Vector_7" d="M74.8556 83.9888H65.1443C63.0476 83.9888 61.8866 86.176 63.2048 87.6437L68.0607 93.0506C69.0588 94.1617 70.9411 94.1617 71.9394 93.0506L76.7954 87.6437C78.1133 86.1763 76.9526 83.9888 74.8556 83.9888Z" fill="#5D5360"/>
<path id="Vector_8" d="M85.3924 120.196C51.3885 120.196 23.8227 96.716 23.8227 67.752C23.8227 46.483 38.6954 28.1849 60.0578 19.9561C30.7832 24.0057 8.43018 45.6298 8.43018 71.7099C8.43018 100.674 35.996 124.154 69.9999 124.154C79.0342 124.154 87.605 122.483 95.3342 119.506C92.0967 119.954 88.7786 120.196 85.3924 120.196Z" fill="#FFC850"/>
<path id="Vector_9" d="M44.7125 78.6363C40.4794 78.6363 37.0164 75.5193 37.0164 71.7098V67.7517C37.0164 63.9422 40.4797 60.8252 44.7125 60.8252C48.9452 60.8252 52.4086 63.9422 52.4086 67.7517V71.7098C52.4088 75.5193 48.9455 78.6363 44.7125 78.6363Z" fill="#4B3F4E"/>
<path id="Vector_10" d="M44.7125 60.8252C44.3363 60.8252 43.9753 60.8781 43.613 60.9256V70.7203C43.613 72.9063 45.582 74.6784 48.011 74.6784C50.4399 74.6784 52.4089 72.9063 52.4089 70.7203V67.7517C52.4089 63.9422 48.9456 60.8252 44.7125 60.8252Z" fill="#5D5360"/>
<path id="Vector_11" d="M44.7124 68.7409C46.5337 68.7409 48.0101 67.4121 48.0101 65.773C48.0101 64.1339 46.5337 62.8052 44.7124 62.8052C42.8912 62.8052 41.4148 64.1339 41.4148 65.773C41.4148 67.4121 42.8912 68.7409 44.7124 68.7409Z" fill="white"/>
<path id="Vector_12" d="M95.2877 78.6363C91.0546 78.6363 87.5916 75.5193 87.5916 71.7098V67.7517C87.5916 63.9422 91.0549 60.8252 95.2877 60.8252C99.5205 60.8252 102.984 63.9422 102.984 67.7517V71.7098C102.984 75.5193 99.5207 78.6363 95.2877 78.6363Z" fill="#4B3F4E"/>
<path id="Vector_13" d="M95.2875 60.8252C94.9112 60.8252 94.5503 60.8781 94.188 60.9256V70.7203C94.188 72.9063 96.157 74.6784 98.5859 74.6784C101.015 74.6784 102.984 72.9063 102.984 70.7203V67.7517C102.984 63.9422 99.5205 60.8252 95.2875 60.8252Z" fill="#5D5360"/>
<path id="Vector_14" d="M95.2871 68.7409C97.1084 68.7409 98.5848 67.4121 98.5848 65.773C98.5848 64.1339 97.1084 62.8052 95.2871 62.8052C93.4659 62.8052 91.9895 64.1339 91.9895 65.773C91.9895 67.4121 93.4659 68.7409 95.2871 68.7409Z" fill="white"/>
<path id="Vector_15" d="M71.7013 93.1353L66.8454 84.4842C66.7573 84.3269 66.7078 84.1549 66.6414 83.9888H65.1446C63.0479 83.9888 61.8869 86.1763 63.2049 87.6437L68.0608 93.0506C69.0031 94.0992 70.7101 94.1218 71.7404 93.1909C71.7284 93.1702 71.7131 93.1562 71.7013 93.1353Z" fill="#4B3F4E"/>
<path id="Vector_16" d="M61.2043 104.363V108.322C61.2043 108.95 61.3058 109.553 61.4595 110.138C64.5091 109.798 67.4255 108.85 70.0002 107.297C72.5749 108.85 75.4913 109.798 78.541 110.138C78.6946 109.553 78.7961 108.95 78.7961 108.322V104.363L69.9999 100.405L61.2043 104.363Z" fill="#E6646E"/>
<path id="Vector_17" d="M54.4596 71.7098V67.7517C54.4596 66.4363 54.1435 65.1707 53.5198 63.9897C53.0339 63.0688 51.8103 62.6773 50.7873 63.1148C49.7644 63.5524 49.3291 64.6534 49.8153 65.574C50.1754 66.2559 50.358 66.9888 50.358 67.7517V71.7098C50.358 74.5113 47.8255 76.7906 44.7127 76.7906C41.5999 76.7906 39.0674 74.5113 39.0674 71.7098V67.7517C39.0674 64.9502 41.5999 62.6709 44.7127 62.6709C45.8453 62.6709 46.7635 61.8445 46.7635 60.8252C46.7635 59.8059 45.8453 58.9795 44.7127 58.9795C39.3383 58.9795 34.9658 62.9147 34.9658 67.7517V71.7098C34.9658 76.547 39.3383 80.482 44.7127 80.482C50.0871 80.482 54.4596 76.547 54.4596 71.7098Z" fill="black"/>
<path id="Vector_18" d="M105.035 71.7098V67.7517C105.035 66.4363 104.719 65.1707 104.095 63.9897C103.609 63.0688 102.385 62.6768 101.363 63.1148C100.34 63.5524 99.9043 64.6534 100.39 65.574C100.751 66.2559 100.933 66.9888 100.933 67.7517V71.7098C100.933 74.5113 98.4007 76.7906 95.2879 76.7906C92.1751 76.7906 89.6425 74.5113 89.6425 71.7098V67.7517C89.6425 64.9502 92.1751 62.6709 95.2879 62.6709C96.4204 62.6709 97.3386 61.8445 97.3386 60.8252C97.3386 59.8059 96.4204 58.9795 95.2879 58.9795C89.9132 58.9795 85.541 62.9147 85.541 67.7517V71.7098C85.541 76.547 89.9135 80.482 95.2879 80.482C100.662 80.482 105.035 76.547 105.035 71.7098Z" fill="black"/>
<path id="Vector_19" d="M88.4212 99.9481C86.3682 101.605 83.7307 102.518 80.9947 102.518C78.744 102.518 76.5762 101.916 74.7256 100.778C71.8994 99.0408 68.1014 99.0405 65.2746 100.778C63.424 101.916 61.2562 102.518 59.0055 102.518C56.2695 102.518 53.6323 101.605 51.579 99.9481C50.7358 99.2674 49.4394 99.3309 48.6831 100.09C47.9268 100.849 47.9973 102.016 48.8406 102.696C51.6471 104.962 55.2573 106.209 59.0055 106.209C59.055 106.209 59.1042 106.207 59.1537 106.207V108.322C59.1537 113.704 64.0195 118.083 70.0001 118.083C75.9807 118.083 80.8465 113.704 80.8465 108.322V106.207C80.896 106.207 80.9452 106.209 80.9947 106.209C84.7429 106.209 88.3528 104.961 91.1596 102.696C92.0029 102.016 92.0734 100.849 91.3171 100.09C90.5608 99.3309 89.2644 99.2674 88.4212 99.9481ZM76.7452 108.322C76.7452 111.669 73.7194 114.392 70.0004 114.392C66.2814 114.392 63.2555 111.669 63.2555 108.322V105.666C64.789 105.266 66.2497 104.65 67.5887 103.826C67.7052 103.755 67.8263 103.691 67.9496 103.631V106.343C67.9496 107.362 68.8678 108.188 70.0004 108.188C71.1329 108.188 72.0511 107.362 72.0511 106.343V103.631C72.1745 103.691 72.2959 103.755 72.4121 103.826C73.7511 104.65 75.2118 105.266 76.7452 105.666V108.322Z" fill="black"/>
<path id="Vector_20" d="M66.466 94.2109C67.3331 95.1761 68.6212 95.7295 70.0001 95.7295C71.3791 95.7295 72.6672 95.1761 73.5343 94.2109L78.3902 88.804C79.5012 87.5667 79.7183 85.9063 78.9568 84.4706C78.195 83.0349 76.6236 82.1431 74.8558 82.1431H65.1445C63.3767 82.1431 61.8053 83.0351 61.0435 84.4706C60.2817 85.9063 60.4988 87.5667 61.6101 88.8038L66.466 94.2109ZM64.7444 86.0613C64.8243 85.9107 64.9588 85.8344 65.1442 85.8344H74.8555C75.0409 85.8344 75.1755 85.9107 75.2553 86.0613C75.3351 86.2117 75.3165 86.3539 75.2001 86.4834L70.3441 91.89C70.2342 92.0126 70.0961 92.0382 69.9996 92.0382C69.9031 92.0382 69.765 92.0126 69.6551 91.8903L64.7991 86.4834C64.6832 86.3539 64.6646 86.2119 64.7444 86.0613Z" fill="black"/>
<path id="Vector_21" d="M135.418 88.7282C134.28 88.4552 133.069 88.2109 131.807 87.9914C133.731 82.7905 134.732 77.3159 134.732 71.7097C134.732 64.7832 133.206 58.057 130.296 51.8013V5.81195C130.296 3.5511 128.875 1.54299 126.587 0.571424C124.3 -0.400147 121.657 -0.118125 119.691 1.30748L92.8452 20.7711C85.8072 18.5711 78.2907 17.4196 70.5647 17.4196C62.8386 17.4196 55.3222 18.5711 48.2842 20.7711L21.4392 1.30748C19.4729 -0.118125 16.8301 -0.400393 14.5427 0.571424C12.2551 1.54299 10.834 3.5511 10.834 5.81195V51.8016C7.92392 58.057 6.39829 64.7834 6.39829 71.7097C6.39829 77.3159 7.39966 82.7907 9.3227 87.9914C8.06099 88.2109 6.84975 88.455 5.71187 88.7282C4.60874 88.9927 3.95486 90.0051 4.25132 90.9895C4.49953 91.8137 5.33488 92.3565 6.24744 92.3565C6.42505 92.3565 6.60596 92.3359 6.78577 92.2928C8.02624 91.9953 9.36875 91.7337 10.7794 91.5026C12.171 94.5145 13.8858 97.4164 15.9054 100.18C13.7606 100.973 11.6779 101.822 9.7303 102.726C8.7168 103.196 8.32243 104.311 8.84945 105.215C9.2179 105.848 9.93907 106.21 10.6862 106.21C11.0075 106.21 11.3337 106.143 11.6387 106.001C13.7278 105.032 16.0002 104.124 18.3491 103.282C20.3992 105.698 22.6951 107.991 25.2329 110.134C37.3475 120.365 53.4466 126 70.5647 126C87.6828 126 103.782 120.365 115.896 110.134C118.435 107.991 120.731 105.698 122.781 103.281C125.129 104.124 127.402 105.032 129.491 106.001C129.796 106.143 130.122 106.21 130.443 106.21C131.191 106.21 131.912 105.848 132.28 105.215C132.807 104.311 132.413 103.196 131.4 102.726C129.452 101.822 127.369 100.973 125.225 100.181C127.244 97.4167 128.959 94.5148 130.351 91.5028C131.761 91.7339 133.104 91.9955 134.344 92.293C134.524 92.3361 134.705 92.3568 134.882 92.3568C135.795 92.3568 136.63 91.8137 136.878 90.9897C137.175 90.0051 136.521 88.9927 135.418 88.7282ZM122.3 4.17249C123.026 3.64585 123.965 3.54544 124.81 3.90474C125.649 4.26108 126.151 4.96712 126.158 5.79472L122.161 9.81586C121.403 10.5785 121.481 11.745 122.336 12.4215C122.73 12.7333 123.22 12.8864 123.708 12.8864C124.279 12.8864 124.847 12.6764 125.256 12.2655L126.16 11.3564V44.5593C123.372 40.4885 119.939 36.6987 115.897 33.2856C113.793 31.5089 111.567 29.8741 109.238 28.3798L119.393 18.164C120.151 17.4014 120.072 16.2349 119.218 15.5584C118.363 14.8822 117.056 14.952 116.298 15.7144L105.772 26.3038C103.053 24.7883 100.212 23.4577 97.272 22.3183L122.3 4.17249ZM16.3204 3.90449C17.166 3.54544 18.1042 3.64585 18.8306 4.17224L43.8582 22.3181C40.9178 23.4577 38.0772 24.7881 35.3585 26.3038L14.9718 5.79448C14.979 4.96687 15.4812 4.26083 16.3204 3.90449ZM14.9707 11.3562L31.8925 28.3796C29.5638 29.8738 27.3371 31.5084 25.2332 33.2854C21.1918 36.6984 17.7583 40.4885 14.9707 44.5593V11.3562ZM121.249 98.7938C109.053 94.7707 96.3189 92.5285 95.6336 92.4094C94.5126 92.2148 93.4263 92.8677 93.2078 93.8683C92.9894 94.8689 93.7213 95.838 94.8427 96.0329C95.0018 96.0605 107.036 98.1786 118.706 101.904C107.752 114.28 90.2506 122.308 70.565 122.308C50.8799 122.308 33.3781 114.28 22.4243 101.904C34.0916 98.1808 46.1284 96.0605 46.2875 96.0327C47.4086 95.8377 48.1405 94.8686 47.9218 93.868C47.7034 92.8677 46.6179 92.2153 45.4963 92.4094C44.811 92.5285 32.077 94.7707 19.8805 98.7938C18.0032 96.3065 16.378 93.6721 15.0317 90.9166C27.2406 89.5092 41.9045 89.8764 42.0871 89.8816C43.2302 89.919 44.1822 89.1111 44.2167 88.0923C44.2511 87.0734 43.3535 86.2225 42.2115 86.1919C41.4307 86.1708 26.1471 85.7876 13.4834 87.3756C11.5723 82.4405 10.5348 77.1759 10.5348 71.7099C10.5348 43.8098 37.4641 21.1112 70.5647 21.1112C103.665 21.1112 130.595 43.8098 130.595 71.7099C130.595 77.1759 129.557 82.4405 127.646 87.3756C114.982 85.7879 99.6987 86.1713 98.9182 86.1922C97.7765 86.2229 96.8785 87.0737 96.913 88.0925C96.9474 89.1113 97.8984 89.9099 99.0426 89.8818C99.2249 89.8769 113.889 89.5095 126.098 90.9171C124.752 93.6721 123.127 96.3065 121.249 98.7938Z" fill="black"/>
</g>
</svg>
