<svg width="405" height="400" viewBox="0 0 405 400" fill="none" xmlns="http://www.w3.org/2000/svg">
<path d="M258.998 215C242.397 219.554 220.995 222.926 193.913 222.926C166.904 222.926 145.547 219.573 128.962 215.038C68.3528 273.716 130.263 331.386 149.701 347.021C151.931 348.815 151.256 351.85 148.423 352.936C141.356 355.647 138.895 359.957 138.237 363.688C137.555 367.563 141.361 371 146.161 371H174.661C186.666 371 192.078 364.566 193.531 355.056H194.157C195.609 364.566 201.022 371 213.027 371H241.836C246.636 371 250.442 367.562 249.76 363.688C249.103 359.957 246.643 355.647 239.576 352.936C236.741 351.85 236.067 348.815 238.298 347.021C257.74 331.382 319.674 273.691 258.998 215Z" fill="#F9BD55"/>
<path d="M195.611 256H192.388C180.023 256 170 264.782 170 275.616V275.926C170 275.926 192.293 317.776 193.999 346C195.705 317.775 217.997 275.926 217.997 275.926C218.194 264.973 208.115 256 195.611 256Z" fill="#F4DBCE"/>
<path d="M194.492 367.387C194.356 369.92 194.348 372.358 194.492 374.667C194.636 372.359 194.628 369.922 194.492 367.387Z" fill="#F4DBCE"/>
<path d="M303.102 153.617C313.878 153.617 326 144.973 326 144.973C309.9 142.643 306.589 129.069 297.967 111.635C333.418 96.2705 324.43 49.04 319.553 31.1418C318.922 28.8227 315.476 28.2327 313.828 30.1379C309.579 35.0465 300.535 41.7878 281.667 45.5655C263.444 49.2134 253.195 57.3533 247.739 63.7014C222.102 54.7475 194.002 56.0668 194.002 56.0668C194.002 56.0668 165.899 54.7475 140.264 63.7014C134.805 57.3533 124.556 49.2134 106.333 45.5655C87.4652 41.7878 78.4211 35.0465 74.1722 30.1379C72.5223 28.2327 69.0779 28.8241 68.4466 31.1418C63.5695 49.0386 54.5821 96.2705 90.0328 111.635C81.4106 129.068 78.0999 142.642 62 144.973C62 144.973 74.1218 153.617 84.8976 153.617C84.8976 153.617 79.5105 164.73 64.6936 167.2C64.6936 167.2 72.7758 179.547 98.367 179.547C98.367 179.547 90.2847 189.426 80.8565 191.895C80.8565 191.895 110.489 224 194 224C277.511 224 307.144 191.895 307.144 191.895C297.715 189.426 289.633 179.547 289.633 179.547C315.224 179.547 323.306 167.2 323.306 167.2C308.49 164.73 303.102 153.617 303.102 153.617Z" fill="#F9BD55"/>
<path d="M195 164C195 164 194.953 177.897 177 179.066C178.596 192.688 186.042 203 195 203C203.958 203 211.404 192.688 213 179.066C195.047 177.897 195 164 195 164Z" fill="#52565B"/>
<path d="M183 195.505C186.215 200.166 190.406 203 195 203C199.595 203 203.785 200.166 207 195.505C203.786 190.837 199.597 188 195 188C190.403 187.999 186.214 190.837 183 195.505Z" fill="#FD605B"/>
<path d="M275.11 351.469C289.938 344.77 338.107 318.58 283.821 281C278.192 312.54 250.244 337.801 238.324 347.313C236.104 349.085 236.775 352.083 239.597 353.156C246.634 355.833 249.084 360.091 249.738 363.777C250.416 367.605 246.627 371 241.848 371H273.354C278.196 371 281.95 367.522 281.22 363.648C280.67 360.728 278.981 357.465 274.777 354.922C273.304 354.033 273.504 352.195 275.11 351.469Z" fill="#F9BD55"/>
<path d="M336.51 220.168C325.36 218.798 315.175 225.976 314.656 235.689C313.342 260.281 305.059 277.543 295 289.566C301.691 295.745 305.699 301.57 307.689 307C333.729 287.246 346.44 259.212 352.295 240.978C355.388 231.35 347.969 221.576 336.51 220.168Z" fill="#F9BD55"/>
<path d="M319.3 31.4037C319.259 31.2542 319.177 31.1332 319.114 31C315.698 36.995 302.936 57.1017 282.454 63.0152C258.287 69.9929 271.713 85.1089 271.713 85.1089L265 88.5978C265 88.5978 269.028 104.877 285.139 104.877L298.836 111C332.907 95.2262 324.111 49.03 319.3 31.4037Z" fill="#F98080"/>
<path d="M105.546 63.0147C85.0637 57.1013 72.3017 36.9949 68.8856 31C68.8228 31.1345 68.7412 31.2555 68.7004 31.4036C63.8893 49.0297 55.0926 95.2251 89.164 111L102.861 104.877C118.972 104.877 123 88.5982 123 88.5982L116.287 85.1094C116.287 85.1094 129.713 69.9922 105.546 63.0147Z" fill="#F98080"/>
<path d="M208 148.999C208 154.799 201.335 163 195 163C188.665 163 182 154.799 182 148.999C182 143.199 188.665 147.598 195 147.598C201.335 147.598 208 143.199 208 148.999Z" fill="#52565B"/>
<path d="M194 265C203.389 265 211 258.284 211 250C211 241.716 203.389 235 194 235C184.611 235 177 241.716 177 250C177 258.284 184.611 265 194 265Z" fill="#F9E63A"/>
<path d="M193.977 223.566C170.565 223.566 151.431 220.873 136 217.013C140.372 228.104 159.02 236.862 182.739 239C185.768 236.615 189.696 235.165 193.998 235.165C198.299 235.165 202.228 236.615 205.256 239C228.985 236.861 247.638 228.097 252 217C236.561 220.867 217.415 223.566 193.977 223.566Z" fill="#039BE6"/>
<path d="M113.361 351.469C98.3267 344.77 49.4889 318.58 104.528 281C110.236 312.54 138.573 337.801 150.657 347.313C152.909 349.085 152.228 352.083 149.367 353.156C142.233 355.833 139.748 360.091 139.086 363.777C138.397 367.605 142.239 371 147.085 371H115.141C110.231 371 106.426 367.522 107.166 363.648C107.723 360.728 109.436 357.465 113.699 354.922C115.192 354.033 114.989 352.195 113.361 351.469Z" fill="#F9BD55"/>
<path d="M273.355 375H241.793C239.618 375 237.856 373.468 237.856 371.578C237.856 369.687 239.618 368.155 241.793 368.155C243.082 368.155 244.271 367.699 245.055 366.905C245.489 366.465 245.973 365.738 245.806 364.777C245.157 361.082 242.586 358.418 237.945 356.633C235.367 355.642 233.56 353.649 233.108 351.301C232.667 349.011 233.593 346.682 235.585 345.076C247.105 335.781 274.489 310.825 279.949 279.903C280.163 278.693 281.103 277.676 282.415 277.233C283.726 276.789 285.211 276.989 286.307 277.757C305.408 291.125 314.333 304.676 312.839 318.033C310.805 336.204 289.922 348.577 279.011 353.851C282.311 356.427 284.408 359.754 285.121 363.583C285.636 366.346 284.713 369.172 282.591 371.342C280.314 373.667 276.948 375 273.355 375ZM253.135 368.155H273.354C274.635 368.155 275.816 367.701 276.594 366.907C276.961 366.533 277.547 365.743 277.348 364.678C276.835 361.922 275.254 359.769 272.513 358.092C270.709 356.987 269.715 355.198 269.855 353.304C269.999 351.375 271.279 349.679 273.28 348.764C282.218 344.682 303.202 333.45 305.002 317.37C306.094 307.608 299.853 297.352 286.434 286.833C278.485 317.098 252.332 340.9 240.938 350.093C240.867 350.185 240.903 350.288 241.128 350.374C250.09 353.821 252.85 359.547 253.585 363.745C253.848 365.235 253.684 366.745 253.135 368.155ZM276.942 354.826C276.944 354.824 276.944 354.824 276.942 354.826V354.826Z" fill="black"/>
<path d="M147.096 375H115.14C111.5 375 108.094 373.667 105.79 371.345C103.641 369.176 102.707 366.348 103.229 363.586C103.951 359.757 106.072 356.43 109.415 353.854C98.3666 348.579 77.2226 336.206 75.1631 318.035C73.6487 304.677 82.6872 291.125 102.027 277.757C103.134 276.989 104.638 276.788 105.967 277.233C107.295 277.677 108.248 278.694 108.464 279.904C113.992 310.826 141.718 335.782 153.383 345.077C155.4 346.684 156.337 349.012 155.891 351.302C155.433 353.65 153.602 355.643 150.994 356.634C146.296 358.419 143.693 361.083 143.036 364.778C142.865 365.739 143.355 366.465 143.795 366.905C144.589 367.701 145.794 368.155 147.099 368.155C149.301 368.155 151.085 369.687 151.085 371.578C151.085 373.468 149.298 375 147.096 375ZM101.894 286.834C88.3079 297.354 81.9874 307.609 83.0952 317.372C84.9189 333.452 106.163 344.683 115.213 348.765C117.239 349.678 118.533 351.376 118.68 353.303C118.822 355.198 117.818 356.989 115.989 358.093C113.214 359.769 111.613 361.922 111.094 364.679C110.893 365.744 111.487 366.533 111.857 366.908C112.643 367.702 113.839 368.157 115.138 368.157H135.609C135.053 366.745 134.889 365.237 135.153 363.746C135.898 359.55 138.692 353.822 147.766 350.375C147.994 350.289 148.03 350.188 148.027 350.164C136.427 340.906 109.944 317.1 101.894 286.834Z" fill="black"/>
<path d="M213.087 375C204.728 375 198.496 372.265 194.56 366.871C187.402 357.061 188.676 338.479 198.347 311.638C205.356 292.183 214.43 275.146 214.521 274.976C215.438 273.264 217.772 272.523 219.735 273.321C221.698 274.12 222.547 276.158 221.631 277.871C211.902 296.067 189.262 346.864 201.178 363.192C203.614 366.529 207.508 368.15 213.085 368.15C215.253 368.15 217.009 369.683 217.009 371.574C217.009 373.466 215.254 375 213.087 375Z" fill="black"/>
<path d="M174.914 375C172.747 375 170.991 373.467 170.991 371.576C170.991 369.684 172.747 368.152 174.914 368.152C180.492 368.152 184.387 366.53 186.822 363.193C198.737 346.865 176.097 296.067 166.368 277.872C165.453 276.158 166.301 274.12 168.264 273.322C170.229 272.523 172.563 273.263 173.478 274.976C173.569 275.146 182.644 292.183 189.653 311.638C199.324 338.479 200.598 357.063 193.44 366.872C189.505 372.265 183.271 375 174.914 375Z" fill="black"/>
<path d="M307.678 311C307.321 311 306.961 310.958 306.609 310.872C305.315 310.557 304.288 309.692 303.883 308.573C301.96 303.266 297.985 297.775 292.073 292.252C290.773 291.038 290.64 289.191 291.753 287.844C303.194 274.016 309.56 256.299 310.674 235.188C310.972 229.562 314.004 224.266 318.993 220.66C324.023 217.021 330.62 215.401 337.083 216.2C343.687 217.02 349.567 220.284 353.219 225.154C356.867 230.021 357.938 236.027 356.158 241.633C349.774 261.734 336.637 289.936 310.308 310.137C309.571 310.7 308.633 311 307.678 311ZM300.05 289.604C303.979 293.567 307.049 297.561 309.227 301.541C331.325 282.771 342.741 257.861 348.484 239.774C349.653 236.096 348.949 232.153 346.556 228.96C344.16 225.763 340.297 223.621 335.962 223.081C331.714 222.559 327.38 223.623 324.071 226.013C320.759 228.408 318.826 231.781 318.63 235.509C317.499 256.851 311.252 275.032 300.05 289.604Z" fill="black"/>
<path d="M194 227C109.529 227 78.9882 194.951 77.7298 193.586C76.9123 192.701 76.6556 191.521 77.0431 190.437C77.4321 189.355 78.4133 188.507 79.6655 188.18C83.5652 187.158 87.3153 184.525 90.1424 182.084C68.8956 179.784 61.5434 168.936 61.2079 168.422C60.5811 167.464 60.5244 166.303 61.0568 165.303C61.5891 164.302 62.6428 163.586 63.8886 163.378C71.0848 162.178 75.6854 158.634 78.3267 155.777C68.5695 153.575 59.8802 147.443 59.4376 147.129C58.2454 146.277 57.7351 144.901 58.1335 143.605C58.532 142.31 59.7668 141.337 61.2883 141.117C72.0645 139.556 75.9484 132.152 82.428 118.101C83.247 116.326 84.0849 114.509 84.9764 112.637C70.3918 105.055 62.038 91.4308 60.1306 72.0852C58.4895 55.4297 62.1971 38.4297 64.5548 29.7773C65.2006 27.4112 67.3017 25.6315 70.039 25.1354C72.7906 24.6351 75.5657 25.5427 77.2636 27.5069C81.1664 32.0149 89.5234 38.1331 107.176 41.6679C124.728 45.1835 135.367 52.6918 141.522 59.0547C165.97 51.2074 191.228 51.9742 194 52.0863C196.777 51.9728 222.033 51.2087 246.478 59.0547C252.633 52.6918 263.272 45.1835 280.824 41.6679C298.476 38.1331 306.835 32.0149 310.736 27.5055C312.436 25.5427 315.212 24.6378 317.961 25.1354C320.698 25.6315 322.799 27.4112 323.445 29.7773C325.801 38.4297 329.51 55.4297 327.869 72.0852C325.962 91.4308 317.608 105.055 303.023 112.637C303.915 114.509 304.753 116.326 305.572 118.101C312.051 132.152 315.935 139.557 326.712 141.117C328.235 141.337 329.468 142.31 329.866 143.605C330.265 144.899 329.756 146.277 328.562 147.129C328.12 147.443 319.43 153.575 309.673 155.777C312.314 158.634 316.913 162.178 324.11 163.378C325.357 163.586 326.411 164.302 326.941 165.303C327.472 166.303 327.417 167.464 326.79 168.422C326.455 168.936 319.103 179.784 297.856 182.084C300.683 184.525 304.433 187.158 308.333 188.18C309.585 188.508 310.566 189.355 310.955 190.437C311.343 191.521 311.086 192.701 310.268 193.586C309.01 194.952 278.469 227 194 227ZM87.5657 192.515C97.6631 200.41 129.396 220.166 194 220.166C258.893 220.166 290.434 200.429 300.456 192.527C292.565 188.45 286.763 181.432 286.467 181.07C285.613 180.028 285.503 178.66 286.179 177.524C286.854 176.388 288.204 175.675 289.677 175.675C304.039 175.675 312.225 171.592 316.38 168.477C304.359 164.171 299.743 154.916 299.522 154.465C299.012 153.41 299.143 152.203 299.872 151.248C300.601 150.294 301.833 149.722 303.153 149.722C307.988 149.722 313.337 147.576 317.345 145.525C307.651 141.009 303.228 131.416 298.257 120.641C297.046 118.014 295.793 115.297 294.396 112.471C293.573 110.808 294.388 108.876 296.254 108.067C328.156 94.2356 321.12 51.6639 316.118 32.6191C311.113 37.9062 301.344 44.5739 282.591 48.3287C265.438 51.7637 255.899 59.395 250.918 65.192C249.848 66.4359 247.952 66.8979 246.29 66.3197C221.796 57.7616 194.482 58.9084 194.208 58.9207C194.069 58.9262 193.924 58.9262 193.786 58.9207C193.516 58.9084 166.195 57.7616 141.703 66.3197C140.043 66.8979 138.144 66.4359 137.076 65.192C132.094 59.395 122.556 51.7637 105.403 48.3287C86.6475 44.5725 76.8793 37.9062 71.8755 32.6191C66.8733 51.6653 59.8377 94.237 91.7395 108.067C93.6058 108.876 94.4217 110.808 93.598 112.471C92.2009 115.297 90.9472 118.014 89.736 120.641C84.7669 131.416 80.3443 141.009 70.6485 145.525C74.6569 147.576 80.0057 149.722 84.8425 149.722C86.1608 149.722 87.3924 150.294 88.1232 151.248C88.8525 152.203 88.9832 153.41 88.4729 154.465C88.254 154.917 83.636 164.174 71.6124 168.478C75.7594 171.586 83.9479 175.675 98.3198 175.675C99.7925 175.675 101.142 176.388 101.818 177.524C102.494 178.66 102.383 180.028 101.53 181.07C101.237 181.431 95.4454 188.436 87.5657 192.515Z" fill="black"/>
<path d="M298.85 114C297.445 114 296.088 113.347 295.379 112.199C294.355 110.54 295.078 108.477 296.992 107.59C310.459 101.355 318.131 89.086 319.798 71.1238C320.843 59.8684 319.292 48.4113 317.518 39.8737C311.046 48.7478 299.587 61.1312 283.67 65.725C277.19 67.5968 273.338 70.1511 272.22 73.3185C270.655 77.7501 274.735 82.5169 274.776 82.5646C275.46 83.3343 275.731 84.3219 275.523 85.2756C275.315 86.2292 274.644 87.0616 273.683 87.5615L269.565 89.7017C271.171 93.5898 275.507 101.051 285.117 101.051C287.289 101.051 289.049 102.576 289.049 104.457C289.049 106.338 287.289 107.863 285.117 107.863C269.829 107.863 262.714 95.4275 261.088 88.8516C260.735 87.428 261.467 85.9663 262.909 85.217L266.297 83.4569C264.674 80.5497 263.036 76.0418 264.7 71.3282C266.605 65.9307 272.151 61.8723 281.184 59.2649C300.243 53.7625 312.381 34.6301 315.648 28.8975C316.333 27.6946 317.774 26.9671 319.317 27.0011C320.865 27.0502 322.235 27.8812 322.818 29.1236C322.895 29.2667 323.07 29.595 323.186 30.0255C325.505 38.5168 329.165 55.2174 327.639 71.6701C325.745 92.0926 316.683 106.199 300.703 113.597C300.11 113.871 299.476 114 298.85 114Z" fill="black"/>
<path d="M241.823 375H213.022C206.366 375 198.503 373.243 193.845 366.167C189.186 373.244 181.324 375 174.668 375H146.177C142.582 375 139.208 373.682 136.922 371.386C134.814 369.269 133.878 366.508 134.356 363.81C135.095 359.636 137.859 353.942 146.843 350.515C147.067 350.429 147.103 350.329 147.1 350.305C136.049 341.445 116.069 323.146 105.648 299.352C92.2562 268.77 99.1172 240.112 126.043 214.172C127.075 213.175 128.691 212.793 130.168 213.196C148.921 218.299 170.368 220.885 193.913 220.885C217.515 220.885 239.005 218.285 257.789 213.159C259.269 212.755 260.883 213.136 261.917 214.132C288.872 240.078 295.748 268.744 282.358 299.336C271.939 323.137 251.952 341.443 240.966 350.236C240.897 350.327 240.933 350.429 241.159 350.515C250.141 353.942 252.905 359.636 253.644 363.81C254.122 366.508 253.186 369.269 251.078 371.386C248.791 373.682 245.419 375 241.823 375ZM193.531 352.332H194.158C196.136 352.332 197.809 353.597 198.069 355.289C199.439 364.214 204.052 368.194 213.024 368.194H241.825C243.117 368.194 244.308 367.741 245.094 366.951C245.53 366.513 246.014 365.79 245.847 364.835C245.197 361.161 242.62 358.512 237.968 356.737C235.385 355.751 233.574 353.77 233.121 351.435C232.679 349.158 233.607 346.844 235.601 345.246C254.873 329.821 312.913 275.579 257.702 220.301C238.746 225.206 217.302 227.69 193.913 227.69C170.581 227.69 149.184 225.218 130.263 220.338C75.1132 275.603 133.133 329.826 152.399 345.246C154.395 346.844 155.323 349.158 154.881 351.435C154.428 353.77 152.616 355.75 150.035 356.737C145.383 358.512 142.806 361.161 142.156 364.835C141.987 365.79 142.472 366.513 142.909 366.951C143.695 367.741 144.886 368.194 146.178 368.194H174.67C183.642 368.194 188.255 364.214 189.623 355.289C189.88 353.597 191.553 352.332 193.531 352.332Z" fill="black"/>
<path d="M194 269C182.42 269 173 260.477 173 250C173 239.523 182.42 231 194 231C205.58 231 215 239.523 215 250C215 260.477 205.58 269 194 269ZM194 238.004C186.689 238.004 180.742 243.385 180.742 250C180.742 256.615 186.689 261.996 194 261.996C201.311 261.996 207.258 256.615 207.258 250C207.258 243.385 201.311 238.004 194 238.004Z" fill="black"/>
<path d="M205.273 242C204.342 242 203.435 241.707 202.722 241.169C200.287 239.333 197.19 238.323 193.999 238.323C190.808 238.323 187.71 239.334 185.275 241.171C184.464 241.782 183.407 242.072 182.341 241.985C156.835 239.783 137.166 230.618 132.235 218.637C131.736 217.426 132.045 216.072 133.038 215.124C134.028 214.176 135.54 213.797 136.95 214.134C154.022 218.223 173.208 220.299 193.977 220.299C214.762 220.299 233.964 218.221 251.049 214.121C252.46 213.783 253.968 214.164 254.961 215.111C255.953 216.057 256.264 217.411 255.767 218.622C250.845 230.61 231.174 239.78 205.656 241.985C205.527 241.994 205.4 242 205.273 242ZM145.069 222.955C152.507 228.855 165.943 233.414 181.556 234.973C185.17 232.674 189.526 231.423 193.999 231.423C198.474 231.423 202.828 232.674 206.443 234.973C222.066 233.412 235.51 228.849 242.944 222.944C227.869 225.768 211.448 227.198 193.977 227.198C176.529 227.196 160.126 225.772 145.069 222.955Z" fill="black"/>
<path d="M194 269C182.42 269 173 260.289 173 249.58C173 247.602 174.733 246 176.871 246H211.129C213.267 246 215 247.602 215 249.58C215 260.289 205.58 269 194 269ZM181.318 253.159C182.977 258.179 188.036 261.841 194 261.841C199.964 261.841 205.023 258.179 206.682 253.159H181.318Z" fill="black"/>
<path d="M193.5 257C191.567 257 190 255.465 190 253.57V249.43C190 247.535 191.567 246 193.5 246C195.433 246 197 247.535 197 249.43V253.57C197 255.465 195.433 257 193.5 257Z" fill="black"/>
<path d="M195 167C186.244 167 178 157.135 178 149.489C178 147.122 178.822 145.34 180.44 144.193C183.105 142.3 186.448 143.053 189.683 143.78C191.48 144.184 193.338 144.601 195 144.601C196.662 144.601 198.52 144.184 200.317 143.78C203.55 143.053 206.893 142.302 209.56 144.193C211.18 145.34 212 147.124 212 149.489C212 157.135 203.756 167 195 167ZM185.728 150.105C186.201 154.387 191.352 160.029 195 160.029C198.648 160.029 203.801 154.388 204.272 150.105C203.593 150.227 202.79 150.408 202.167 150.547C200.133 151.005 197.6 151.574 195 151.574C192.4 151.574 189.867 151.005 187.833 150.547C187.21 150.408 186.407 150.227 185.728 150.105Z" fill="black"/>
<path d="M215.28 183C214.647 183 214.002 182.979 213.343 182.936C191.315 181.51 191.002 163.755 191 163.575C190.994 161.606 192.749 160.006 194.922 160H194.933C197.092 160 198.846 161.577 198.866 163.533C198.89 164.711 199.522 174.891 213.903 175.823C217.74 176.069 220.677 175.313 222.842 173.5C227.028 169.996 227.134 163.615 227.134 163.551C227.151 161.589 228.96 160.046 231.083 160.009C233.247 160.016 235 161.603 235 163.567C235 163.952 234.923 173.047 228.232 178.696C224.843 181.554 220.492 183 215.28 183Z" fill="black"/>
<path d="M174.272 183C169.177 183 164.926 181.555 161.614 178.694C155.075 173.047 155 163.949 155 163.565C155 161.596 156.72 160 158.844 160C160.967 160 162.687 161.596 162.687 163.565C162.687 163.615 162.79 169.996 166.882 173.5C168.997 175.313 171.855 176.077 175.617 175.823C190.11 174.864 190.311 164.016 190.313 163.555C190.319 161.59 192.039 160 194.156 160H194.167C196.29 160.006 198.006 161.606 198 163.575C198 163.754 197.694 181.508 176.165 182.936C175.521 182.977 174.89 183 174.272 183Z" fill="black"/>
<path d="M195 206C183.938 206 174.9 194.854 173.021 178.894C172.912 177.975 173.228 177.056 173.893 176.348C174.558 175.639 175.52 175.2 176.553 175.134C190.544 174.225 191.145 164.475 191.168 163.365C191.206 161.502 192.912 160 195 160H195.029C197.123 160.014 198.814 161.508 198.832 163.37C198.857 164.501 199.474 174.228 213.447 175.134C214.482 175.2 215.441 175.639 216.107 176.348C216.773 177.056 217.088 177.975 216.979 178.894C215.1 194.854 206.062 206 195 206ZM181.166 181.46C183.228 191.62 188.967 199.173 195 199.173C201.033 199.173 206.772 191.62 208.834 181.46C201.784 180.196 197.546 177.019 195 173.676C192.454 177.019 188.217 180.196 181.166 181.46Z" fill="black"/>
<path d="M357.03 165C356.721 165 356.406 164.969 356.092 164.905C304.561 154.414 258.701 156.914 258.245 156.941C256.045 157.061 254.16 155.68 254.01 153.843C253.859 152.006 255.511 150.413 257.698 150.287C258.167 150.261 305.255 147.693 357.963 158.423C360.095 158.857 361.404 160.66 360.887 162.451C360.447 163.975 358.821 165 357.03 165Z" fill="black"/>
<path d="M352.056 199C351.443 199 350.823 198.873 350.241 198.605C303.582 177.106 258.709 169.996 258.262 169.927C256.119 169.594 254.685 167.787 255.06 165.888C255.435 163.99 257.474 162.722 259.62 163.052C260.08 163.124 306.153 170.425 353.878 192.415C355.808 193.304 356.558 195.411 355.555 197.12C354.852 198.316 353.478 199 352.056 199Z" fill="black"/>
<path d="M34.9325 165C33.1589 165 31.549 163.976 31.1115 162.45C30.6 160.66 31.8968 158.857 34.0087 158.423C86.2251 147.694 132.87 150.261 133.336 150.287C135.503 150.414 137.14 152.007 136.991 153.843C136.843 155.68 134.964 157.061 132.797 156.942C132.34 156.915 86.8483 154.428 35.8626 164.905C35.551 164.969 35.2378 165 34.9325 165Z" fill="black"/>
<path d="M38.9436 199C37.5207 199 36.1482 198.316 35.4454 197.12C34.4416 195.411 35.1916 193.305 37.122 192.415C84.8498 170.424 130.923 163.123 131.382 163.052C133.529 162.723 135.565 163.99 135.94 165.888C136.315 167.786 134.881 169.593 132.74 169.926C132.291 169.996 87.3585 177.134 40.7574 198.605C40.1791 198.873 39.5566 199 38.9436 199Z" fill="black"/>
<path d="M217.909 139C215.756 139 214.006 137.437 214 135.504C213.973 128.081 220.681 122.024 228.951 122C233.002 121.981 236.729 123.377 239.572 125.912C242.413 128.446 243.986 131.822 244 135.417C244.006 137.354 242.263 138.93 240.104 138.935C240.099 138.935 240.094 138.935 240.091 138.935C237.938 138.935 236.188 137.372 236.182 135.439C236.176 133.716 235.424 132.101 234.062 130.887C232.706 129.679 230.91 129.014 229.001 129.014C228.993 129.014 228.985 129.014 228.977 129.014C225.017 129.025 221.805 131.927 221.818 135.48C221.824 137.417 220.081 138.992 217.921 138.999C217.917 139 217.912 139 217.909 139Z" fill="black"/>
<path d="M171.091 139C168.932 139 167.182 137.427 167.182 135.486C167.182 131.925 163.96 129.029 159.999 129.029C156.039 129.029 152.818 131.926 152.818 135.486C152.818 137.427 151.068 139 148.909 139C146.75 139 145 137.427 145 135.486C145 128.049 151.73 122 159.999 122C168.27 122 175 128.05 175 135.486C175 137.427 173.25 139 171.091 139Z" fill="black"/>
<path d="M89.1493 114C88.5233 114 87.8894 113.871 87.298 113.597C71.3192 106.199 62.2547 92.0949 60.361 71.6745C58.8353 55.2222 62.4954 38.5233 64.8138 30.0342C64.9318 29.6038 65.1064 29.2755 65.1882 29.1175C65.7717 27.8752 67.1385 27.0511 68.6862 27.002C70.2261 26.9557 71.6668 27.7022 72.3526 28.905C75.6194 34.637 87.762 53.7674 106.817 59.2692C115.85 61.8764 121.396 65.9357 123.301 71.3313C124.965 76.0444 123.328 80.5532 121.703 83.4587L125.091 85.2186C126.533 85.9678 127.265 87.4294 126.912 88.8529C125.286 95.4281 118.169 107.862 102.882 107.862C100.71 107.862 98.9499 106.338 98.9499 104.457C98.9499 102.575 100.71 101.051 102.882 101.051C112.428 101.051 116.799 93.5742 118.424 89.6974L114.317 87.5643C113.356 87.0644 112.686 86.2334 112.477 85.2786C112.267 84.3237 112.54 83.3375 113.224 82.5678C113.255 82.5324 117.365 77.7376 115.77 73.2914C114.638 70.1394 110.789 67.5948 104.332 65.73C88.4179 61.1367 76.9564 48.7532 70.4824 39.88C68.7082 48.4168 67.1574 59.874 68.2018 71.1297C69.869 89.0899 77.5415 101.356 91.0084 107.591C92.9226 108.478 93.6461 110.541 92.6222 112.199C91.9113 113.346 90.5523 114 89.1493 114Z" fill="black"/>
<path d="M194.999 206C189.185 206 183.719 203.066 179.611 197.739C178.797 196.683 178.797 195.33 179.609 194.274C183.716 188.939 189.182 186 195 186C200.819 186 206.285 188.939 210.391 194.274C211.204 195.33 211.202 196.684 210.39 197.74C206.278 203.066 200.812 206 194.999 206ZM187.598 196.003C189.337 197.758 191.896 199.586 194.999 199.586C198.102 199.586 200.66 197.758 202.401 196.003C200.662 194.246 198.105 192.414 194.999 192.414C191.894 192.414 189.336 194.246 187.598 196.003Z" fill="black"/>
</svg>
