<svg width="140" height="126" viewBox="0 0 140 126" fill="none" xmlns="http://www.w3.org/2000/svg">
<g id="dog 1" clip-path="url(#clip0_4_7)">
<path id="Vector" d="M134.58 67.6091C131.273 74.2251 130.368 76.2778 132.13 82.49C132.638 84.2987 133.275 86.5504 131.517 88.5806C129.642 90.7511 126.418 90.7511 124.687 90.7511C120.791 90.7511 117.28 88.8144 114.313 85.9573C114.073 86.7202 113.785 87.4929 113.438 88.2779C109.267 97.6637 108.785 109.797 94.9844 112.318C94.0244 112.565 92.0376 112.67 90.2267 112.353C83.6179 112.158 78.8575 111.497 75.2291 110.992C70.0079 110.261 69.988 110.262 64.7731 110.992C61.1447 111.496 56.3843 112.158 49.7755 112.353C47.9575 112.67 45.9442 112.557 45.0178 112.318C31.2386 109.801 30.7812 97.7668 26.5641 88.2779C26.2168 87.4929 25.9297 86.7202 25.6891 85.9573C22.7224 88.8144 19.2115 90.7511 15.3152 90.7511C13.5844 90.7511 10.3606 90.7511 8.48489 88.5806C6.72674 86.5504 7.36383 84.2987 7.87241 82.49C9.63931 76.2618 8.72879 74.2251 5.42248 67.6091C-4.96621 46.8061 -0.593793 38.8228 19.9717 23.311C22.1482 21.6671 24.0294 20.2496 25.3473 19.0635C31.9424 13.1279 44.2905 13.438 49.2697 13.8465C55.9427 12.6896 63.6313 13.7837 70.0011 15.697C76.3709 13.7837 84.0595 12.6894 90.7325 13.8465C95.7144 13.438 108.06 13.1279 114.655 19.0635C115.973 20.2496 117.854 21.6671 120.031 23.311C140.534 38.7766 144.995 46.7535 134.58 67.6091Z" fill="#F2A661"/>
<path id="Vector_2" d="M115.768 56.3975C111.693 69.2369 118.343 77.2377 113.438 88.2781C110.758 94.3095 109.751 100.562 106.288 105.413C102.198 111.143 95.1799 113.222 90.227 112.353C83.6182 112.158 78.8578 111.497 75.2294 110.992C70.0082 110.261 69.9883 110.262 64.7734 110.992C61.145 111.496 56.3846 112.158 49.7758 112.353C47.9578 112.671 45.9445 112.557 45.0181 112.318C34.4957 110.396 31.7351 102.935 29.0799 95.0357C25.5827 84.6252 23.7677 84.8664 25.1479 72.4326C25.6811 67.6462 26.2335 62.6949 24.2347 56.3975C19.2818 40.806 26.9723 33.446 35.7379 21.6328C42.9789 11.8555 57.6134 11.9764 70.0014 15.6972C82.3799 11.9793 97.0207 11.8509 104.265 21.6328C112.959 33.3498 120.739 40.7476 115.768 56.3975Z" fill="#FFAA64"/>
<path id="Vector_3" d="M96.2506 100.455C87.5009 98.4859 98.4381 94.5485 94.0632 84.705C89.6883 74.8616 80.9386 76.8303 80.9386 68.9555C80.9386 61.0807 70.0013 57.1433 70.0013 57.1433V57.0522C70.0013 57.0522 59.0641 60.9896 59.0641 68.8644C59.0641 76.7392 50.3144 74.7705 45.9395 84.614C41.5646 94.4575 52.5018 98.3949 43.7521 100.364C38.4284 101.562 33.1047 99.1159 29.7524 97.0143C32.4058 104.694 35.7561 110.626 45.018 112.318C45.9589 112.56 47.9681 112.669 49.7757 112.353C60.6104 112.034 66.6855 110.438 70.0013 110.438C70.0013 110.664 69.4304 110.272 75.2293 111.083C78.8577 111.588 83.6182 112.25 90.227 112.444C92.0532 112.763 94.046 112.651 94.9846 112.41C104.185 110.728 107.571 104.861 110.25 97.1054C106.898 99.2069 101.574 101.653 96.2506 100.455Z" fill="#999999"/>
<path id="Vector_4" d="M47.0333 55.3157C50.0535 55.3157 52.5019 53.1121 52.5019 50.3939C52.5019 47.6757 50.0535 45.4722 47.0333 45.4722C44.0131 45.4722 41.5647 47.6757 41.5647 50.3939C41.5647 53.1121 44.0131 55.3157 47.0333 55.3157Z" fill="black"/>
<path id="Vector_5" d="M140 49.4093C140 35.4249 121.331 25.0691 114.656 19.0636C108.061 13.1275 95.7143 13.439 90.7324 13.8461C84.0933 12.6978 76.4236 13.7658 70.0012 15.6981C63.5836 13.7673 55.9147 12.6973 49.2706 13.8461C44.2895 13.4388 31.9422 13.1272 25.3463 19.0636C18.6631 25.0775 0.00341797 35.4203 0.00341797 49.4093C0.00341797 62.0385 8.75318 70.5054 8.75318 76.9711C8.75318 82.5996 5.70662 85.3668 8.48413 88.581C10.3604 90.752 13.5839 90.752 15.3155 90.752C19.2108 90.752 22.7225 88.8155 25.69 85.9584C25.9292 86.7213 26.2174 87.4935 26.5655 88.2771C30.8373 97.8892 31.2581 109.804 45.0193 112.319C46.5366 112.613 48.1706 112.635 49.7748 112.352C60.5991 112.035 66.6648 110.439 70.0015 110.439C73.3439 110.439 79.4078 112.035 90.2266 112.352C91.7622 112.622 93.303 112.622 94.9214 112.331C108.428 110.386 109.459 97.229 113.438 88.2771C113.786 87.4935 114.074 86.7213 114.313 85.9584C117.281 88.8155 120.793 90.752 124.688 90.752C126.419 90.752 129.643 90.752 131.519 88.581C134.265 85.4035 131.25 82.4638 131.25 76.9711C131.25 70.5061 140 62.0425 140 49.4093ZM16.8814 82.4167C18.5537 75.1205 16.7767 71.1327 13.4042 64.3803C5.27952 48.112 6.83917 43.4939 25.5921 29.3456C27.9277 27.5836 29.9448 26.0616 31.5335 24.6318C32.3833 23.8667 33.529 23.2776 34.8447 22.8268C26.5239 33.8881 19.4314 41.2712 24.2332 56.3972C26.081 62.2174 25.7504 66.8857 25.2692 71.3382C22.968 76.9086 19.4522 81.0751 16.8814 82.4167ZM62.5992 103.325C65.0609 100.39 68.2803 95.956 70.0015 94.8299C71.726 95.9582 74.9342 100.381 77.4038 103.325C70.0409 102.31 69.9282 102.312 62.5992 103.325ZM70.0015 71.065C72.4159 71.0707 75.3629 71.4659 76.3735 71.9022C76.531 72.2745 76.6943 73.1609 76.4022 74.0953C75.8975 75.7123 75.5229 75.0021 70.0015 78.1351C64.502 75.0145 64.1042 75.7074 63.6008 74.0953C63.309 73.1609 63.472 72.2745 63.6295 71.9022C64.6401 71.4659 67.5871 71.0707 70.0015 71.065ZM105.314 85.3523C101.001 95.0568 101.119 102.943 93.6026 104.53C92.8778 104.527 92.1723 104.519 91.4885 104.505C85.7801 102.921 80.3607 91.3357 74.3764 87.9904V84.964C75.5511 84.2873 77.2477 83.3721 79.2708 82.4615C86.1459 79.3682 87.0381 70.311 82.5952 66.3123C77.9551 62.1362 62.0491 62.135 57.4076 66.3123C53.0212 70.26 53.7825 79.3348 60.732 82.4615C62.7556 83.3723 64.4523 84.2875 65.6264 84.9638V87.9904C59.6459 91.3337 54.223 102.922 48.5146 104.504C47.8307 104.519 47.125 104.527 46.4001 104.53C38.8827 102.943 38.9956 95.0425 34.6891 85.3523C30.947 76.9322 37.2306 68.6748 32.6463 54.2339C28.8828 42.3791 34.1226 38.0076 43.017 26.0005C44.7065 23.7201 47.1578 22.4345 49.8784 21.7848C50.4546 21.7765 51.0074 21.6677 51.5141 21.4728C59.3309 20.3255 68.1788 23.5217 68.9338 23.6935C69.8033 23.8921 70.6865 23.8384 71.4849 23.5783C79.8313 20.8642 92.0493 19.337 96.9852 26.0005C105.829 37.9392 111.127 42.3548 107.356 54.2339C102.77 68.6809 109.062 76.9172 105.314 85.3523ZM126.599 64.3803C123.229 71.1275 121.448 75.1149 123.122 82.4167C120.551 81.0751 117.035 76.9086 114.734 71.3379C114.252 66.8855 113.922 62.2172 115.77 56.397C120.559 41.3116 113.51 33.9312 105.158 22.8265C106.474 23.2773 107.619 23.8665 108.47 24.6313C110.058 26.0613 112.076 27.5831 114.411 29.3451C133.163 43.4927 134.725 48.11 126.599 64.3803Z" fill="black"/>
<path id="Vector_6" d="M92.9696 55.3157C95.9898 55.3157 98.4382 53.1121 98.4382 50.3939C98.4382 47.6757 95.9898 45.4722 92.9696 45.4722C89.9494 45.4722 87.501 47.6757 87.501 50.3939C87.501 53.1121 89.9494 55.3157 92.9696 55.3157Z" fill="black"/>
</g>
<defs>
<clipPath id="clip0_4_7">
<rect width="140" height="126" fill="white"/>
</clipPath>
</defs>
</svg>
