<svg width="425" height="400" viewBox="110 0 300 400" fill="none" xmlns="http://www.w3.org/2000/svg">
<path d="M155.904 293.812L128.219 277.334C121.894 273.57 113.441 275.226 109.342 281.036C105.243 286.846 107.048 294.608 113.373 298.374L141.058 314.853C147.369 318.608 155.825 316.975 159.935 311.15C164.034 305.34 162.229 297.578 155.904 293.812Z" fill="#4F4C5F"/>
<path d="M255.785 43.7314C249.076 43.7314 243.189 47.6459 240.857 53.424C231.124 77.543 189.975 90.7797 232.742 136.314L271.623 87.2222V58.2778C271.623 50.2438 264.532 43.7314 255.785 43.7314Z" fill="#E8A882"/>
<path d="M369.35 43.7314C376.059 43.7314 381.946 47.6459 384.278 53.424C394.011 77.543 435.16 90.7797 392.394 136.314L353.513 87.2229V58.2778C353.513 50.2438 360.604 43.7314 369.35 43.7314Z" fill="#E8A882"/>
<path d="M239.429 207.996C228.555 260.539 118.872 238.883 118.872 345.026C118.872 351.787 124.839 357.268 132.2 357.268H303.292V263.768L239.429 207.996Z" fill="#5C586F"/>
<path d="M220.798 233.592C222.828 238.257 225.278 242.774 228.146 247.09C236.803 260.14 249.004 271.058 263.431 278.664C275.643 285.103 289.268 289.047 303.292 290.259V263.767L239.429 207.996C237.092 219.287 230.191 227.15 220.798 233.592Z" fill="#4F4C5F"/>
<path d="M242.809 238.883C235.262 227.525 230.921 214.181 230.921 199.908V152.108C230.921 110.695 267.473 77.1228 312.568 77.1228C357.657 77.1228 394.208 110.695 394.208 152.108V199.908C394.208 214.181 389.868 227.525 382.32 238.883H242.809Z" fill="#6A647F"/>
<path d="M244.722 174.222C244.722 131.052 272.669 93.8785 312.85 77.1266C312.756 77.1266 312.662 77.1235 312.568 77.1235C267.473 77.1235 230.921 110.695 230.921 152.109V199.909C230.921 214.181 235.262 227.526 242.809 238.884H268.522C253.596 220.949 244.722 198.539 244.722 174.222Z" fill="#5C586F"/>
<path d="M333.457 193.252C356.421 199.42 374.697 215.798 382.319 238.883C378.928 243.998 374.881 248.718 370.295 252.93C355.52 266.5 335.115 274.893 312.567 274.893C283.018 274.893 257.133 260.477 242.809 238.883C250.431 215.792 268.721 199.419 291.678 193.252H333.457Z" fill="#E8A882"/>
<path d="M333.457 193.252C332.645 203.199 323.603 211.028 312.568 211.028C301.533 211.028 292.491 203.199 291.679 193.252C298.299 191.465 305.314 190.532 312.568 190.532C319.83 190.532 326.837 191.465 333.457 193.252Z" fill="#423E4F"/>
<path d="M279.142 135.207L269.543 132.634C264.01 131.151 258.219 134.018 256.509 139.049C254.745 144.238 258.213 149.801 263.895 151.324L273.228 153.825C278.826 155.325 284.687 152.374 286.321 147.232C287.954 142.091 284.74 136.706 279.142 135.207Z" fill="#E8A882"/>
<path d="M345.994 135.207L355.593 132.634C361.126 131.151 366.917 134.018 368.627 139.049C370.391 144.238 366.922 149.801 361.241 151.324L351.908 153.825C346.31 155.325 340.449 152.374 338.815 147.232C337.182 142.091 340.396 136.706 345.994 135.207Z" fill="#E8A882"/>
<path d="M190.089 329.376H170.263C160.925 329.376 153.355 336.328 153.355 344.905V357.268H193.536C200.97 357.268 206.997 351.733 206.997 344.905C206.997 336.328 199.427 329.376 190.089 329.376Z" fill="#E8A882"/>
<path d="M306.381 329.376H286.555C277.217 329.376 269.647 336.328 269.647 344.905V357.268H309.828C317.262 357.268 323.288 351.733 323.288 344.905C323.288 336.328 315.719 329.376 306.381 329.376Z" fill="#E3986D"/>
<path d="M267.655 329.376H247.829C238.491 329.376 230.921 336.328 230.921 344.905V357.268H271.102C278.536 357.268 284.563 351.733 284.563 344.905C284.563 336.328 276.993 329.376 267.655 329.376Z" fill="#E8A882"/>
<path d="M254.544 217.181C249.49 223.486 245.489 230.767 242.81 238.883C257.134 260.477 283.019 274.893 312.568 274.893C315.513 274.893 318.421 274.747 321.286 274.468C291.43 264.549 267.277 243.7 254.544 217.181Z" fill="#E3986D"/>
<path d="M257.923 171.662V180.376C257.923 182.989 260.23 185.107 263.075 185.107C265.92 185.107 268.226 182.989 268.226 180.376V171.662C268.226 169.049 265.92 166.931 263.075 166.931C260.23 166.931 257.923 169.049 257.923 171.662Z" fill="black"/>
<path d="M356.659 171.662V180.376C356.659 182.989 358.965 185.107 361.81 185.107C364.655 185.107 366.961 182.989 366.961 180.376V171.662C366.961 169.049 364.655 166.931 361.81 166.931C358.965 166.931 356.659 169.049 356.659 171.662Z" fill="black"/>
<path d="M331.177 221.306C328.332 221.306 326.026 223.425 326.026 226.038C326.026 228.137 324.167 229.844 321.882 229.844C319.596 229.844 317.737 228.137 317.737 226.038C317.737 223.425 315.431 221.306 312.586 221.306C309.741 221.306 307.435 223.425 307.435 226.038C307.435 228.137 305.575 229.844 303.29 229.844C301.005 229.844 299.146 228.137 299.146 226.038C299.146 223.425 296.839 221.306 293.994 221.306C284.304 221.306 288.848 239.307 303.29 239.307C306.829 239.307 310.071 238.128 312.586 236.18C315.1 238.128 318.342 239.307 321.882 239.307C336.306 239.308 340.904 221.306 331.177 221.306Z" fill="black"/>
<path d="M291.264 148.557C293.696 140.902 288.919 132.899 280.584 130.664L270.984 128.092C262.823 125.905 254.122 130.188 251.591 137.639C248.948 145.414 254.067 153.619 262.451 155.866L271.784 158.367C280.116 160.599 288.843 156.18 291.264 148.557ZM261.425 140.459C262.295 137.9 265.286 136.423 268.099 137.176L277.698 139.748C280.566 140.517 282.211 143.272 281.374 145.907C280.539 148.535 277.531 150.049 274.669 149.283L265.336 146.782C262.415 145.999 260.524 143.11 261.425 140.459Z" fill="black"/>
<path d="M373.543 137.639C371.01 130.188 362.311 125.905 354.149 128.092L344.55 130.664C336.215 132.898 331.436 140.901 333.869 148.558C336.292 156.183 345.021 160.599 353.349 158.367L362.682 155.866C371.04 153.626 376.193 145.438 373.543 137.639ZM359.797 146.782L350.464 149.282C347.603 150.049 344.594 148.535 343.759 145.906C342.922 143.272 344.566 140.517 347.435 139.748L357.034 137.175C359.842 136.422 362.838 137.895 363.708 140.458C364.608 143.106 362.723 145.997 359.797 146.782Z" fill="black"/>
<path d="M110.57 302.345L119.291 307.535C115.562 318.567 113.72 330.969 113.72 345.026C113.72 354.385 122.01 361.999 132.199 361.999H309.827C320.09 361.999 328.439 354.331 328.439 344.904C328.439 334.371 319.642 325.694 308.443 324.735V279.524C309.815 279.584 311.19 279.624 312.567 279.624C360.865 279.624 399.358 243.613 399.358 199.908V189.859C399.358 187.246 397.051 185.128 394.206 185.128C391.362 185.128 389.055 187.246 389.055 189.859C388.598 196.24 391.05 209.861 383.027 227.277C373.065 207.4 357.414 195.36 334.902 188.709C334.902 188.709 334.901 188.709 334.9 188.709C320.319 184.773 304.366 184.893 290.232 188.71C290.232 188.71 290.232 188.71 290.231 188.71C289.114 189.265 258.018 195.528 242.104 227.268C238.112 218.599 236.072 209.303 236.072 199.908V152.107C236.072 113.439 270.315 81.8536 312.567 81.8536C354.753 81.8536 389.055 113.382 389.055 152.107V171.365C389.055 173.978 391.362 176.096 394.206 176.096C397.051 176.096 399.358 173.978 399.358 171.365V152.107C399.358 147.168 398.862 142.333 397.922 137.64C411.788 122.377 417.839 108.952 416.402 96.6517C415.06 85.1675 407.746 76.615 400.674 68.3438C395.921 62.7846 391.43 57.5346 389.108 51.7787C386.023 44.1358 378.083 39 369.349 39C357.776 39 348.36 47.6478 348.36 58.2778V79.4911C337.441 74.9325 325.321 72.3914 312.567 72.3914C299.812 72.3914 287.692 74.9325 276.772 79.4898V58.2778C276.773 47.6478 267.357 39 255.784 39C247.051 39 239.111 44.1358 236.025 51.7799C233.702 57.5359 229.213 62.7859 224.46 68.345C217.387 76.6162 210.074 85.1688 208.732 96.653C207.295 108.952 213.343 122.375 227.206 137.634C224.812 149.571 226.164 153.963 225.768 199.908C225.768 206.691 226.715 213.398 228.539 219.885C220.596 230.32 206.277 236.781 189.82 244.202C185.68 246.069 181.398 248 177.119 250.046C174.597 251.254 173.616 254.111 174.93 256.429C176.244 258.746 179.355 259.647 181.879 258.439C186.048 256.445 190.274 254.539 194.36 252.697C208.876 246.151 222.742 239.899 232.388 230.484C243.5 255.047 267.652 273.735 298.139 278.514V324.644C288.822 324.988 283.87 323.637 277.094 326.597C276.35 326.272 275.582 325.988 274.796 325.74V294.468C274.796 291.855 272.489 289.737 269.644 289.737C266.799 289.737 264.493 291.855 264.493 294.468V324.644C248.869 324.784 247.029 324.298 242.939 325.151V294.468C242.939 291.855 240.633 289.737 237.788 289.737C234.943 289.737 232.636 291.855 232.636 294.468V330.234C223.259 338.429 226.35 348.438 225.768 352.536H210.181C215.841 342.163 208.878 328.096 195.044 325.165C193.802 311.982 186.814 304.478 180.862 300.419C173.879 295.657 167.012 294.61 166.252 294.506C163.438 294.122 160.818 295.907 160.4 298.491C159.983 301.076 161.925 303.483 164.739 303.867C164.788 303.873 169.748 304.626 174.72 308.017C180.328 311.841 183.642 317.424 184.621 324.643H170.261C158.098 324.643 148.203 333.732 148.203 344.904V352.537H132.198C127.69 352.537 124.022 349.168 124.022 345.027C124.022 311.512 134.664 285.985 165.278 267.3C167.648 265.854 168.292 262.916 166.718 260.741C165.144 258.565 161.946 257.972 159.577 259.418C150.798 264.776 143.446 270.643 137.367 277.141L131.019 273.362C122.32 268.185 110.656 270.473 105.019 278.462C99.3803 286.453 101.871 297.166 110.57 302.345ZM358.664 58.2778C358.664 52.8657 363.457 48.4629 369.35 48.4629C373.864 48.4629 377.828 51.0557 379.448 55.0686C382.331 62.215 387.537 68.3028 392.571 74.1899C404.645 88.3098 415.204 100.662 394.653 126.181C388.601 110.032 376.307 94.7339 358.664 84.5575V58.2778ZM312.567 270.162C286.15 270.162 262.176 257.547 248.446 238.223C254.908 220.554 268.6 206.258 287.835 199.444C295.775 220.92 329.217 221.338 337.299 199.444C355.835 205.989 369.979 219.891 376.682 238.226C362.94 257.596 339.352 270.162 312.567 270.162ZM327.416 196.717C322.29 209.591 302.768 209.324 297.717 196.717C300.523 196.133 317.658 194.732 327.416 196.717ZM230.476 126.175C209.93 100.66 220.489 88.3092 232.562 74.1899C237.597 68.3021 242.802 62.215 245.686 55.0686C247.305 51.0557 251.269 48.4629 255.784 48.4629C261.676 48.4629 266.47 52.8657 266.47 58.2778V84.5537C248.981 94.6392 236.584 109.874 230.476 126.175ZM306.38 334.107C312.862 334.107 318.136 338.951 318.136 344.905C318.136 349.113 314.408 352.537 309.826 352.537H287.753C289.037 350.179 289.713 347.543 289.713 344.905C289.713 340.985 288.476 337.241 286.324 334.109C288.006 334.075 280.542 334.108 306.38 334.107ZM236.071 344.905C236.071 338.951 241.345 334.107 247.827 334.107H267.654C272.486 334.107 276.643 336.8 278.448 340.636C281.368 346.888 277.15 352.538 271.1 352.538H236.071V344.905ZM158.505 344.905C158.505 338.951 163.779 334.107 170.261 334.107H190.088C196.57 334.107 201.844 338.951 201.844 344.905C201.844 349.113 198.118 352.536 193.537 352.537H158.505V344.905ZM113.663 283.609C116.198 280.016 121.464 278.954 125.415 281.304L131.089 284.682C127.846 289.105 125.11 293.808 122.941 298.433L116.173 294.404C112.241 292.063 111.116 287.22 113.663 283.609Z" fill="black"/>
</svg>
