<svg width="565" height="218" viewBox="0 0 565 218" fill="none" xmlns="http://www.w3.org/2000/svg">
<path d="M359.78 113.424C360.391 131.577 374.117 193.325 374.117 193.325H366.414C360.242 193.325 354.519 195.608 351.321 199.345L345.65 205.974C343.363 208.648 346.081 212.064 350.496 212.064H373.887C379.571 212.064 384.906 210.126 388.221 206.857L400.382 194.865C402.432 192.843 403.499 190.456 403.627 187.969C404.623 168.505 412.837 146.388 417.13 137.108L381.838 105.876L359.78 113.424Z" fill="#D26437"/>
<path d="M231.849 124.615H178.911L216.029 193.325C209.479 193.325 203.47 195.893 200.417 199.995L195.512 206.587C193.662 209.075 196.209 212.064 200.18 212.064H220.155C227.244 212.064 233.644 209.061 236.406 204.439L244.774 190.436C246.084 188.243 246.483 185.832 245.922 183.484L231.849 124.615Z" fill="#D26437"/>
<path d="M169 87V135C276.483 134.267 342.638 121.206 373 113.306V87H169Z" fill="#FFC88C"/>
<path d="M462.824 81.091V63.6374C462.824 47.9348 447.997 34.1058 426.574 30.0684C426.402 30.0363 417.586 28.728 417.586 28.728C360.104 20.9252 253.678 35.705 225.996 36.1524C189.582 36.7404 158.076 21.8378 128.122 15.3784C114.828 12.5116 100.665 12.3521 87.0384 14.2797L69.6315 16.743C46.8327 19.8053 38.9512 23.5175 30.5453 33.3614C22.3017 43.0144 11 67.9729 11 67.9729C11 67.9729 37.4807 93.2058 46.3072 86.9529C56.6164 79.6505 66.9035 75.2299 79.4075 74.8944C87.2106 74.6856 96.6719 77.1466 105.068 74.1742C148.017 118.849 99.2674 193.242 99.2674 193.242H96.7393C89.9916 193.242 83.8345 195.967 80.8747 200.262L76.3372 206.847C74.6978 209.226 77.1432 212 80.8813 212H102.791C106.64 212 110.45 211.192 113.456 209.49C155.078 185.919 188.68 127.666 198.981 108.377C201.127 104.359 205.994 101.371 211.942 100.53C213.029 100.376 214.197 100.216 215.443 100.051L251.893 96.7835C281.152 95.3665 318.746 96.4957 351.537 106.781C357.35 108.604 362.456 111.465 366.104 115.153C383.019 132.245 408.553 138.252 437.997 154.556C464.11 169.014 465.065 193.242 465.065 193.242C457.466 193.242 450.721 196.686 448.317 201.793L445.733 207.285C444.642 209.605 447.079 211.999 450.53 211.999H479.617C484.17 211.999 487.977 209.546 488.405 206.335L495.96 149.751C496.168 148.188 495.564 146.659 494.226 145.408C486.933 138.59 462.824 113.594 462.824 81.091Z" fill="#EB874B"/>
<path d="M89.5192 6C89.5192 6 76.4424 9.29209 68.6127 20.2255C66.6865 22.9158 69.5432 26.1199 73.8145 26.2748L93.6158 26.9941C97.5843 27.1381 100.689 24.6175 99.8674 21.8781C98.4275 17.072 95.436 10.1671 89.5192 6Z" fill="#D26437"/>
<path d="M46.5664 86.6011C56.871 79.3058 67.1536 74.8893 79.652 74.5542C87.4517 74.3456 96.9088 76.8042 105.301 73.8347C103.846 74.2526 102.231 74.0261 100.454 73.387C93.809 70.9964 84.8992 62.8284 73.586 60.9799C59.2491 58.6378 35.5367 81.4542 11.2737 67.6386C11.2748 67.6393 37.7437 92.8472 46.5664 86.6011Z" fill="#FFC88C"/>
<path d="M81.1262 211.528H103.027C106.875 211.528 110.684 210.72 113.689 209.019C121.411 204.648 128.853 199.076 135.925 192.789H99.5041H96.9771C90.2324 192.789 84.0781 195.511 81.1195 199.802L76.5841 206.38C74.9454 208.758 77.3908 211.528 81.1262 211.528Z" fill="#FFC88C"/>
<path d="M465.141 192.789C457.546 192.789 450.802 196.229 448.401 201.331L445.818 206.818C444.726 209.135 447.163 211.528 450.613 211.528H479.687C484.238 211.528 488.043 209.077 488.471 205.869L490.218 192.789H465.141Z" fill="#FFC88C"/>
<path d="M374.119 193.325H366.415C360.243 193.325 354.519 195.608 351.322 199.345L345.651 205.974C343.364 208.647 346.083 212.064 350.498 212.064H373.888C379.572 212.064 384.908 210.126 388.222 206.857L400.382 194.865C400.865 194.39 401.111 193.838 401.485 193.325L374.119 193.325Z" fill="#FFBE82"/>
<path d="M216.029 193.325C209.48 193.325 203.47 195.893 200.417 199.995L195.511 206.587C193.661 209.075 196.208 212.064 200.179 212.064H220.154C227.242 212.064 233.643 209.061 236.405 204.439L243.047 193.325H216.029Z" fill="#FFBE82"/>
<path d="M557.165 125.951C553.123 125.788 549.572 127.739 548.67 130.44C546.591 130.949 541.515 131.151 537.093 130.402C522.581 127.941 518.41 116.772 514.103 101.264C513.686 99.7592 513.276 98.2868 512.856 96.8643C501.049 56.8835 475.431 34.4646 430.583 25.3915C429.372 25.1006 419.946 23.5159 417.299 23.1572C374.785 17.4002 307.257 23.4855 262.574 27.5128C245.636 29.0398 231.009 30.3577 223.549 30.4786C200.499 30.8319 179.034 24.4066 158.269 18.1738C137.792 12.0277 118.409 6.23169 98.2246 6.85168C96.5991 4.98155 94.6624 3.18786 92.3472 1.62266C89.957 0.00754489 86.4368 -0.449461 83.3889 0.466887C82.7588 0.656395 71.643 4.0769 63.5057 11.4475C40.5437 14.6948 30.3969 19.2766 20.783 30.5083C12.1182 40.631 0.870049 65.31 0.395536 66.3558C-0.419963 68.1534 0.0413075 70.1171 1.63368 71.6324C8.4468 78.1092 25.7312 93.248 39.0606 93.9375C39.4203 93.9562 39.7768 93.9655 40.1321 93.9655C43.7218 93.9655 47.0202 93.018 49.5131 91.257C59.2847 84.3505 67.8083 81.1585 77.1452 80.9089C79.0531 80.8512 81.4224 81.0493 83.9318 81.2521C88.6195 81.6303 94.6271 82.1092 100.76 81.0384C125.648 125.822 99.1239 174.972 91.3397 187.661C82.6054 188.359 74.7649 192.202 70.8651 197.849L62.7597 209.585C61.5072 211.398 61.6661 213.539 63.1779 215.25C64.6909 216.96 67.3426 218 70.1974 218H106.212C107.906 218 109.558 217.633 110.947 216.948C139.546 202.848 164.426 173.219 181.81 147.848L202.676 189.229C197.585 190.888 193.305 193.7 190.587 197.345L181.583 209.425C180.231 211.237 180.321 213.418 181.82 215.172C183.318 216.927 186.006 217.999 188.906 217.999H229.424C232.749 217.999 235.75 216.593 237.046 214.429L252.015 189.424C252.612 188.427 252.806 187.332 252.575 186.262L241.923 136.975C296.881 133.207 332.101 125.273 349.954 120.206C352.022 138.532 359.266 173.012 362.42 187.598C354.121 188.04 346.471 191.324 342.128 196.391L331.22 209.12C329.673 210.926 329.622 213.182 331.089 215.021C332.555 216.861 335.311 217.998 338.299 217.998H380.909C383.575 217.998 386.078 217.091 387.633 215.561L408.273 195.243C409.283 194.249 409.826 193.055 409.826 191.831C409.826 176.021 412.915 161.614 416.299 151.759C421.116 154.053 426.038 156.525 431.098 159.321C447.155 168.19 452.478 181.583 454.219 188.705C447.021 190.606 441.223 194.718 438.686 200.093L433.873 210.3C433.031 212.083 433.454 214.044 435.01 215.57C436.565 217.095 439.064 217.998 441.724 217.998H485.954C490.223 217.998 493.792 215.704 494.194 212.7L502.856 147.97C503.065 146.398 502.368 144.833 500.92 143.63C500.604 143.368 469.352 116.984 469.352 81.2575V63.8064C469.352 60.4756 468.771 57.2204 467.684 54.0923C481.493 64.6245 490.782 79.3788 496.652 99.2531C497.059 100.631 497.455 102.058 497.86 103.515C501.828 117.803 507.263 137.372 533.23 141.776C535.818 142.215 539.51 142.596 543.478 142.596C548.934 142.596 554.907 141.875 559.23 139.597C562.716 137.759 564.762 135.097 564.988 132.104C565.231 128.878 561.728 126.123 557.165 125.951ZM235.859 186.391L223.938 206.301H202.621L205.233 202.797C206.866 200.606 210.058 199.244 213.563 199.244C216.253 199.244 218.776 198.32 220.327 196.766C221.877 195.212 222.262 193.223 221.359 191.431L194.896 138.947C205.603 138.764 215.763 138.42 225.389 137.946L235.859 186.391ZM393.289 189.936L376.664 206.301H352.989L356.288 202.451C357.983 200.472 361.069 199.244 364.341 199.244H372.065C374.483 199.244 376.782 198.495 378.355 197.196C379.928 195.896 380.617 194.175 380.241 192.486C380.129 191.988 371.197 151.765 367.509 127.204C377.331 134.169 388.789 139.307 401.357 144.927C401.46 144.973 401.565 145.02 401.668 145.066C397.637 155.315 393.558 171.751 393.289 189.936ZM478.425 206.301H453.207L454.39 203.794C455.674 201.073 459.263 199.244 463.323 199.244C465.558 199.244 467.699 198.605 469.257 197.473C470.815 196.341 471.659 194.811 471.596 193.232C471.553 192.131 470.197 166.074 441.294 150.106C430.236 143.998 419.596 139.239 410.207 135.042C391.78 126.803 377.225 120.295 367.099 107.677C366.315 106.7 365.186 105.95 363.885 105.447L363.889 105.438C326.315 90.8336 280.743 89.5889 249.125 91.1151C244.565 91.335 241.121 94.1262 241.432 97.3494C241.744 100.572 245.686 103.003 250.254 102.786C275.133 101.583 309.173 102.178 339.69 110.408C316.944 116.412 269.686 125.913 195.004 127.244C200.383 118.257 204.218 111.067 206.22 107.185C208.335 106.852 211.197 106.426 214.678 105.968C219.17 105.375 222.134 102.321 221.297 99.1454C220.458 95.9698 216.14 93.8719 211.643 94.4678C203.108 95.5923 198.039 96.5313 197.826 96.5711C195.159 97.0679 193.017 98.4724 192.114 100.314C191.718 101.126 152.401 180.546 103.538 206.301H83.4451L85.7394 202.979C87.3064 200.71 90.6279 199.244 94.2 199.244H96.7337C99.8688 199.244 102.735 197.992 104.136 196.011C104.607 195.345 115.75 179.441 122.605 156.361C131.491 126.438 128.854 98.2657 115 74.7175C118.321 71.9857 121.349 68.236 123.834 63.1154C125.316 60.0591 123.013 56.733 118.689 55.6856C114.37 54.6382 109.659 56.265 108.176 59.3214C102.521 70.9781 96.2327 70.4712 85.8111 69.6273C82.7974 69.384 79.6755 69.136 76.5173 69.2163C63.3766 69.5681 51.4773 73.6421 39.1996 82.014C34.822 80.6243 25.5138 74.1896 17.5012 67.0296C21.4076 58.7716 29.3408 43.1063 34.9434 36.5608C40.3539 30.2408 44.9202 27.0449 56.7555 24.5969C57.6438 26.2432 59.5617 27.5908 62.1373 28.1289C66.5183 29.046 71.1244 27.2749 72.4188 24.1773C74.5398 19.1058 80.2008 15.5207 84.5034 13.4291C87.8537 17.5476 89.4328 22.7821 89.8058 24.9127C90.3123 27.8817 93.8822 30.063 98.0127 30.063C98.3382 30.063 98.666 30.0489 98.997 30.0216C103.536 29.6418 106.781 26.7329 106.243 23.5253C106.159 23.0246 105.809 21.1483 104.922 18.5965C113.853 19.0309 123.119 20.9159 132.687 23.438V47.0049C132.687 50.2359 136.392 52.8539 140.964 52.8539C145.536 52.8539 149.24 50.2359 149.24 47.0049V28.1733C150.091 28.4284 150.942 28.6834 151.797 28.94C158.83 31.0503 166.171 33.2519 173.804 35.2421L141.881 110.444C140.568 113.539 143.052 116.799 147.429 117.727C148.223 117.896 149.023 117.975 149.811 117.975C153.371 117.975 156.659 116.339 157.735 113.805L189.548 38.8638C200.489 41.0014 211.956 42.3639 223.924 42.1728C228.304 42.1026 234.356 41.7095 241.734 41.1176L254.626 73.5914C255.651 76.1736 258.973 77.862 262.59 77.862C263.331 77.862 264.083 77.791 264.83 77.6428C269.231 76.771 271.797 73.5415 270.562 70.4314L258.355 39.685C260.403 39.5017 262.505 39.3122 264.665 39.1173C293.622 36.5078 332.396 33.0148 366.878 32.5383L350.742 80.2913C349.681 83.4334 352.424 86.5887 356.87 87.339C357.517 87.4482 358.164 87.5004 358.799 87.5004C362.542 87.5004 365.936 85.6942 366.843 83.0084L383.885 32.5726C394.929 32.7933 405.215 33.432 414.183 34.6463C418.23 35.1945 422.102 35.8488 425.825 36.6006C441.863 40.6505 452.798 51.5172 452.798 63.8072V81.2583C452.798 83.0863 452.884 84.8863 453.02 86.6659L415.85 108.115C412.309 110.158 411.782 113.843 414.674 116.345C416.309 117.761 418.69 118.495 421.089 118.495C422.929 118.495 424.782 118.063 426.318 117.177L455.382 100.405C457.445 108.104 460.561 115.154 464.077 121.394L452.614 126.795C448.811 128.587 447.782 132.218 450.318 134.906C451.913 136.596 454.537 137.511 457.212 137.511C458.79 137.511 460.385 137.193 461.795 136.528L471.021 132.181C477.007 140.411 482.926 146.316 486.061 149.215L478.425 206.301Z" fill="black"/>
<path d="M323.562 47.3393C319.306 46.259 314.635 47.8441 313.123 50.876L301.475 74.2221C299.962 77.2533 302.184 80.5834 306.438 81.6614C307.343 81.8913 308.268 82 309.177 82C312.538 82 315.688 80.5112 316.877 78.1254L328.525 54.7794C330.038 51.7466 327.816 48.4165 323.562 47.3393Z" fill="black"/>
<path d="M419.454 82.1344L431.518 58.701C433.069 55.6881 430.751 52.3876 426.341 51.3283C421.927 50.2705 417.098 51.8533 415.546 54.8647L403.482 78.2981C401.931 81.311 404.249 84.6115 408.659 85.6708C409.588 85.8936 410.537 86 411.468 86C414.959 85.9992 418.229 84.512 419.454 82.1344Z" fill="black"/>
<path d="M223.937 58.3085C222.765 55.1977 218.308 53.3612 213.988 54.2052C209.665 55.0484 207.113 58.2525 208.285 61.3624L214.063 76.6913C215.042 79.2902 218.313 81 221.884 81C222.587 81 223.301 80.9339 224.012 80.7946C228.335 79.9514 230.887 76.7473 229.715 73.6374L223.937 58.3085Z" fill="black"/>
</svg>
