<svg width="140" height="126" viewBox="0 0 140 126" fill="none" xmlns="http://www.w3.org/2000/svg">
<g id="tiger 1" clip-path="url(#clip0_4_62)">
<path id="Vector" d="M119.183 2.12545C125.556 0.678175 131.75 5.0931 131.492 11.0035C131.172 18.3408 127.116 31.4387 118.349 39.3297L89.8545 17.6303C100.814 7.76691 112.389 3.66895 119.183 2.12545Z" fill="#EBAF4B"/>
<path id="Vector_2" d="M131.234 13.6827C130.363 20.0092 127.352 28.8339 121.808 35.6542L99.8098 23.864C106.921 14.903 115.345 10.3596 120.413 8.36407C125.11 6.51542 130.478 9.15157 131.234 13.6827Z" fill="#E19C46"/>
<path id="Vector_3" d="M20.9447 2.12544C14.5723 0.678164 8.37835 5.09333 8.6362 11.0035C8.95639 18.3408 13.0123 31.4387 21.7795 39.3296L50.2736 17.6303C39.3142 7.76689 27.7391 3.66894 20.9447 2.12544Z" fill="#EBAF4B"/>
<path id="Vector_4" d="M8.89355 13.6825C9.76527 20.0091 12.7755 28.8338 18.3198 35.654L40.3181 23.8639C33.2062 14.9032 24.7833 10.3598 19.7148 8.3642C15.018 6.5153 9.65016 9.15146 8.89355 13.6825Z" fill="#E19C46"/>
<path id="Vector_5" d="M70.0004 11.7119C-2.33091 11.7119 6.43632 86.6736 6.43632 86.6736L14.7472 83.9198C14.7472 83.9198 15.2038 97.8519 21.7792 112.318L28.0808 105.661C32.7385 113.551 41.506 120.209 41.506 120.209L48.0814 112.319H91.9189L98.4942 120.209C98.4942 120.209 107.262 113.552 111.919 105.661L118.221 112.318C124.796 97.8519 125.253 83.9198 125.253 83.9198L133.564 86.6736C133.564 86.6738 142.332 11.7119 70.0004 11.7119Z" fill="#FFC850"/>
<g id="Group">
<path id="Vector_6" d="M26.163 57.0837C26.163 40.606 33.9013 25.707 46.3775 14.9771C-0.258687 29.3917 6.43643 86.674 6.43643 86.674L14.7473 83.9202C14.7473 83.9202 15.2039 97.8523 21.7793 112.319L28.0809 105.661C32.7387 113.552 41.5062 120.21 41.5062 120.21L48.0815 112.319H69.7162C44.2457 103.779 26.163 82.2768 26.163 57.0837Z" fill="#EBAF4B"/>
<path id="Vector_7" d="M95.187 116.24L98.4948 120.21C98.4948 120.21 100.812 118.445 103.694 115.667C100.909 116.01 98.0693 116.201 95.187 116.24Z" fill="#EBAF4B"/>
</g>
<path id="Vector_8" d="M11.6946 47.6797C4.15182 66.9109 6.43612 86.6737 6.43612 86.6737L14.747 83.9199C14.747 83.9199 15.2036 97.852 21.779 112.318L28.0806 105.661C32.7383 113.552 41.5058 120.209 41.5058 120.209L48.0812 112.319C34.1271 101.554 3.86827 80.9939 11.6946 47.6797Z" fill="#F5DCB4"/>
<path id="Vector_9" d="M128.315 47.6797C135.857 66.9109 133.573 86.6737 133.573 86.6737L125.262 83.9199C125.262 83.9199 124.806 97.852 118.23 112.318L111.929 105.661C107.271 113.552 98.5033 120.209 98.5033 120.209L91.928 112.319C105.882 101.554 136.141 80.9939 128.315 47.6797Z" fill="#FAEBC8"/>
<path id="Vector_10" d="M70.0007 106.4L48.3108 110.928C49.6673 118.429 56.8992 124.155 65.6172 124.155H74.3844C83.0661 124.155 90.2744 118.476 91.6736 111.021L70.0007 106.4Z" fill="#F5DCB4"/>
<path id="Vector_11" d="M42.602 74.8377C38.3825 74.8377 34.9307 71.7307 34.9307 67.9335V63.9881C34.9307 60.1907 38.3828 57.084 42.602 57.084C46.8214 57.084 50.2732 60.1909 50.2732 63.9881V67.9335C50.2735 71.7307 46.8211 74.8377 42.602 74.8377Z" fill="#4B3F4E"/>
<path id="Vector_12" d="M42.602 57.0835C42.2269 57.0835 41.867 57.1362 41.5061 57.1837V66.947C41.5061 69.1259 43.4688 70.8923 45.8898 70.8923C48.3111 70.8923 50.2736 69.1259 50.2736 66.947V63.9879C50.2736 60.1907 46.8212 57.0835 42.602 57.0835Z" fill="#5D5360"/>
<path id="Vector_13" d="M42.6009 64.9723C44.4161 64.9723 45.8876 63.6479 45.8876 62.0142C45.8876 60.3805 44.4161 59.0562 42.6009 59.0562C40.7857 59.0562 39.3142 60.3805 39.3142 62.0142C39.3142 63.6479 40.7857 64.9723 42.6009 64.9723Z" fill="white"/>
<path id="Vector_14" d="M97.3988 74.8377C93.1794 74.8377 89.7275 71.7307 89.7275 67.9335V63.9881C89.7275 60.1907 93.1797 57.084 97.3988 57.084C101.618 57.084 105.07 60.1909 105.07 63.9881V67.9335C105.07 71.7307 101.618 74.8377 97.3988 74.8377Z" fill="#4B3F4E"/>
<path id="Vector_15" d="M97.3987 57.0835C97.0235 57.0835 96.6637 57.1362 96.3027 57.1837V66.947C96.3027 69.1259 98.2655 70.8923 100.686 70.8923C103.108 70.8923 105.07 69.1259 105.07 66.947V63.9879C105.07 60.1907 101.618 57.0835 97.3987 57.0835Z" fill="#5D5360"/>
<path id="Vector_16" d="M97.3995 64.9723C99.2147 64.9723 100.686 63.6479 100.686 62.0142C100.686 60.3805 99.2147 59.0562 97.3995 59.0562C95.5843 59.0562 94.1128 60.3805 94.1128 62.0142C94.1128 63.6479 95.5843 64.9723 97.3995 64.9723Z" fill="white"/>
<path id="Vector_17" d="M84.2477 88.6465C78.1489 88.6465 72.8382 91.0434 70.0005 94.5943C67.163 91.0432 61.852 88.6465 55.7533 88.6465C46.6743 88.6465 39.3142 93.9459 39.3142 100.483C39.3142 107.019 46.6741 112.319 55.7533 112.319C61.852 112.319 67.1627 109.922 70.0005 106.371C72.8379 109.922 78.1489 112.319 84.2477 112.319C93.3266 112.319 100.687 107.019 100.687 100.483C100.686 93.9456 93.3266 88.6465 84.2477 88.6465Z" fill="#FAEBC8"/>
<path id="Vector_18" d="M55.9001 92.9839L61.4514 97.1495C66.4034 100.865 73.5981 100.865 78.55 97.1495L84.1011 92.9842C86.5604 91.1387 85.1265 87.5359 81.9245 87.5359C74.8348 87.5359 65.1664 87.5359 58.0767 87.5356C54.8747 87.5359 53.4408 91.1389 55.9001 92.9839Z" fill="#FF8087"/>
<path id="Vector_19" d="M70.2187 98.71L64.6674 92.6404C63.4055 91.2605 63.1739 89.2091 63.6751 87.5361C61.7058 87.5361 59.8122 87.5361 58.0762 87.5361C54.8742 87.5361 53.4403 91.1389 55.8996 92.9844L61.4509 97.1498C64.3024 99.2896 67.894 100.156 71.3765 99.831C70.9808 99.4842 70.5917 99.1178 70.2187 98.71Z" fill="#E6646E"/>
<path id="Vector_20" d="M81.9247 85.6904H58.0766C55.7488 85.6904 53.7328 86.9625 52.9406 88.931C52.1455 90.9071 52.7916 93.0545 54.587 94.4017L60.1386 98.567C62.9963 100.712 66.4982 101.783 70.0009 101.783C73.5031 101.783 77.0061 100.711 79.8633 98.567L85.4143 94.4019C87.2095 93.0548 87.8559 90.9074 87.0607 88.9312C86.268 86.9625 84.2525 85.6904 81.9247 85.6904ZM82.7877 91.5669L77.2367 95.732C73.0438 98.8784 66.9573 98.8784 62.7644 95.732L57.2128 91.5667C56.521 91.0474 56.7193 90.3802 56.7967 90.188C56.8943 89.9456 57.2142 89.3816 58.0763 89.3816H81.9245C82.7863 89.3816 83.1063 89.9456 83.2039 90.188C83.3031 90.4344 83.4609 91.0617 82.7877 91.5669Z" fill="black"/>
<path id="Vector_21" d="M134.979 65.4008C133.758 56.7919 130.872 45.4248 124.176 35.2784C131.219 28.0334 133.103 18.2039 133.414 11.0761C133.561 7.70433 131.97 4.54793 129.049 2.41553C126.084 0.252119 122.258 -0.505604 118.554 0.336037C109.617 2.36606 101.021 6.57648 92.9856 12.8435C86.0802 10.8652 78.41 9.86626 70.0002 9.86626C61.5903 9.86626 53.9199 10.8652 47.0147 12.8435C38.9792 6.57648 30.3832 2.36582 21.4459 0.335791C17.7419 -0.50585 13.9157 0.251873 10.9513 2.41528C8.02993 4.54769 6.43907 7.70433 6.58618 11.0756C6.8968 18.2034 8.78079 28.0329 15.824 35.2779C9.12833 45.4244 6.24247 56.7914 5.02075 65.4003C3.32133 77.374 4.35137 86.4844 4.39594 86.8663C4.46211 87.4326 4.81485 87.9395 5.35215 88.2402C5.88919 88.541 6.55036 88.6017 7.14399 88.4051L12.8747 86.5065C13.3185 91.2386 14.8317 101.909 19.8807 113.017C20.1517 113.613 20.7483 114.039 21.4549 114.141C22.1609 114.243 22.8759 114.005 23.34 113.515L27.7634 108.842C32.6773 115.877 39.8488 121.365 40.1832 121.619C40.6144 121.947 41.1752 122.101 41.7377 122.043C42.2982 121.985 42.8079 121.723 43.1464 121.316L47.8121 115.718C48.9843 118.015 50.7023 120.082 52.8674 121.754C56.412 124.492 60.9395 126 65.6164 126H74.3837C82.2256 126 89.0817 121.876 92.1965 115.728L96.8537 121.316C97.1922 121.723 97.7021 121.985 98.2624 122.043C98.3398 122.051 98.4172 122.055 98.4943 122.055C98.9761 122.055 99.445 121.902 99.8169 121.619C100.151 121.365 107.323 115.877 112.237 108.842L116.66 113.515C117.124 114.006 117.839 114.243 118.545 114.141C119.252 114.039 119.848 113.613 120.119 113.017C125.169 101.909 126.682 91.2389 127.125 86.5065L132.856 88.4051C133.449 88.602 134.111 88.541 134.648 88.2402C135.185 87.9395 135.538 87.4326 135.604 86.8663C135.649 86.4851 136.678 77.3745 134.979 65.4008ZM119.558 3.91498C121.998 3.36077 124.516 3.85912 126.465 5.28228C126.529 5.32903 126.59 5.37825 126.652 5.42649C125.485 5.2867 124.1 5.31328 122.461 5.62065C120.149 6.05427 117.088 7.26579 114.064 8.9444C113.1 9.4794 112.801 10.6166 113.395 11.4843C113.99 12.3518 115.254 12.6213 116.217 12.0865C118.813 10.6454 121.461 9.57907 123.298 9.23454C125.361 8.84793 127.049 9.04013 128.054 9.77545C129.024 10.4857 129.228 11.6034 129.228 12.416C129.228 12.4165 129.228 12.417 129.228 12.4175C128.779 18.4768 127.054 26.152 121.857 32.0228C120.477 30.2256 118.967 28.4815 117.304 26.8189C114.251 23.7671 110.853 21.127 107.123 18.895C107.786 18.2423 108.473 17.6044 109.186 16.9917C110.005 16.2878 110.035 15.1194 109.253 14.3821C108.471 13.6448 107.173 13.618 106.353 14.3218C105.38 15.1583 104.443 16.0351 103.558 16.9378C101.6 15.9546 99.5604 15.0729 97.4396 14.294C104.468 9.14619 111.895 5.6556 119.558 3.91498ZM20.4434 3.91498C28.1065 5.6556 35.5331 9.14619 42.5615 14.2945C40.4399 15.0736 38.3998 15.9556 36.4415 16.9395C30.2858 10.6789 22.3947 6.53095 17.5401 5.6209C15.9014 5.31353 14.5161 5.28695 13.3494 5.42673C13.4115 5.3785 13.4716 5.32928 13.5356 5.28252C15.4855 3.85936 18.0033 3.36102 20.4434 3.91498ZM10.7736 12.4175C10.7736 12.417 10.7736 12.4165 10.7736 12.416C10.7736 11.6034 10.9773 10.4857 11.9477 9.77545C12.9529 9.03988 14.6416 8.84743 16.7039 9.23454C22.4108 10.3046 29.0967 15.2717 32.8687 18.9013C29.1426 21.1324 25.7476 23.7706 22.6977 26.8192C21.0346 28.4818 19.525 30.2256 18.1452 32.0231C12.9477 26.152 11.2229 18.4771 10.7736 12.4175ZM74.3842 122.309H65.617C59.0876 122.309 53.4427 118.712 51.1814 113.436C52.933 113.907 54.7853 114.164 56.7034 114.164C61.1402 114.164 65.3186 112.841 68.7878 110.338C69.5017 109.823 70.4992 109.822 71.2137 110.338C74.6828 112.841 78.8612 114.164 83.2977 114.164C85.2151 114.164 87.0668 113.907 88.8179 113.436C86.5527 118.709 80.8999 122.309 74.3842 122.309ZM131.71 84.0926L125.962 82.188C125.343 81.9831 124.653 82.0586 124.106 82.3908C123.56 82.7231 123.224 83.2718 123.204 83.8649C123.199 83.9919 122.741 95.8492 117.547 108.76L113.481 104.464C113.04 103.998 112.373 103.759 111.697 103.826C111.022 103.892 110.427 104.255 110.109 104.795C106.874 110.274 101.471 115.214 98.7869 117.484L93.7203 111.405C99.1352 108.272 102.737 102.781 102.737 96.537C102.737 95.5177 101.819 94.6913 100.686 94.6913C99.553 94.6913 98.6351 95.5177 98.6351 96.537C98.6351 104.221 91.7546 110.473 83.2969 110.473C79.8032 110.473 76.5118 109.43 73.7785 107.458C71.5533 105.852 68.4454 105.852 66.221 107.458C63.4877 109.43 60.1961 110.473 56.7024 110.473C48.2449 110.473 41.3642 104.221 41.3642 96.537C41.3642 95.5177 40.4462 94.6913 39.3134 94.6913C38.1805 94.6913 37.2626 95.5177 37.2626 96.537C37.2626 102.78 40.864 108.272 46.2789 111.405L41.2118 117.485C38.5292 115.218 33.1323 110.286 29.891 104.794C29.5724 104.255 28.9774 103.892 28.3023 103.826C27.6261 103.759 26.9592 103.998 26.519 104.463L22.4527 108.76C17.2595 95.8494 16.8004 83.9922 16.7963 83.8659C16.7769 83.2723 16.4411 82.7236 15.8945 82.3911C15.3479 82.0586 14.6578 81.9828 14.0379 82.1883L8.2886 84.0931C8.09227 80.6706 7.95063 73.8917 9.08923 65.8686C10.5929 55.274 14.7029 40.3277 25.7446 29.2892C36.1863 18.8507 51.0758 13.5577 69.9999 13.5577C88.916 13.5577 103.801 18.8462 114.242 29.2762C125.269 40.2913 129.386 55.2031 130.897 65.7729C132.049 73.8218 131.907 80.6519 131.71 84.0926Z" fill="black"/>
<path id="Vector_22" d="M48.6543 59.3606C47.6313 59.7982 47.196 60.8992 47.6819 61.8198C48.0407 62.4988 48.2225 63.2282 48.2225 63.9879V67.9335C48.2225 70.7228 45.7009 72.9922 42.6017 72.9922C39.5023 72.9922 36.9807 70.7228 36.9807 67.9335V63.9879C36.9807 61.1987 39.5023 58.9292 42.6017 58.9292C43.7346 58.9292 44.6525 58.1028 44.6525 57.0835C44.6525 56.0642 43.7346 55.2378 42.6017 55.2378C37.2407 55.2378 32.8794 59.163 32.8794 63.9877V67.9333C32.8794 72.7582 37.2407 76.6832 42.6017 76.6832C47.9625 76.6832 52.3238 72.758 52.3238 67.9333V63.9877C52.3238 62.6757 52.0085 61.4133 51.3865 60.2352C50.9006 59.3148 49.6772 58.9231 48.6543 59.3606Z" fill="black"/>
<path id="Vector_23" d="M107.121 67.9335V63.9879C107.121 62.676 106.806 61.4135 106.184 60.2355C105.697 59.3148 104.474 58.9231 103.451 59.3606C102.428 59.7982 101.993 60.8992 102.479 61.8198C102.838 62.4988 103.019 63.2282 103.019 63.9879V67.9335C103.019 70.7228 100.498 72.9922 97.3984 72.9922C94.2992 72.9922 91.7776 70.7228 91.7776 67.9335V63.9879C91.7776 61.1987 94.2992 58.9292 97.3984 58.9292C98.5312 58.9292 99.4491 58.1028 99.4491 57.0835C99.4491 56.0642 98.5312 55.2378 97.3984 55.2378C92.0376 55.2378 87.6763 59.163 87.6763 63.9877V67.9333C87.6763 72.7582 92.0376 76.6832 97.3984 76.6832C102.759 76.6834 107.121 72.7582 107.121 67.9335Z" fill="black"/>
<path id="Vector_24" d="M35.8477 85.023C34.6421 84.4803 33.4611 83.8592 32.3373 83.1765C31.3989 82.6063 30.1238 82.8283 29.4903 83.6734C28.8564 84.5183 29.1036 85.6655 30.0426 86.236C31.3133 87.0082 32.6493 87.7111 34.0132 88.3248C34.3077 88.4575 34.6208 88.52 34.9289 88.52C35.6812 88.52 36.4055 88.1459 36.7648 87.4994C37.2712 86.5874 36.8605 85.4788 35.8477 85.023Z" fill="black"/>
<path id="Vector_25" d="M19.3402 68.3334C18.9809 67.3682 17.8215 66.847 16.7472 67.1689C15.6729 67.4913 15.0921 68.5364 15.4503 69.5036C15.529 69.7164 17.4385 74.7783 22.4082 80.0472C22.8137 80.4774 23.3915 80.6984 23.9728 80.6984C24.4417 80.6984 24.9131 80.5544 25.299 80.2598C26.1625 79.6001 26.2683 78.4353 25.5352 77.6581C21.1124 72.9691 19.3624 68.3922 19.3402 68.3334Z" fill="black"/>
<path id="Vector_26" d="M105.471 83.176C104.347 83.8592 103.166 84.4803 101.961 85.0225C100.948 85.4783 100.538 86.5869 101.044 87.4987C101.403 88.1454 102.128 88.5192 102.88 88.5192C103.188 88.5192 103.501 88.4565 103.796 88.3241C105.159 87.7106 106.495 87.0077 107.766 86.2352C108.705 85.6648 108.952 84.5177 108.319 83.6727C107.684 82.8283 106.41 82.6056 105.471 83.176Z" fill="black"/>
<path id="Vector_27" d="M121.062 67.1685C119.987 66.8461 118.826 67.3688 118.468 68.3357C118.451 68.3812 116.736 72.9273 112.274 77.6577C111.541 78.4349 111.647 79.5997 112.51 80.2592C112.896 80.5538 113.367 80.6977 113.836 80.6977C114.418 80.6977 114.995 80.4765 115.401 80.0466C120.371 74.7777 122.28 69.716 122.359 69.5032C122.717 68.5363 122.136 67.4911 121.062 67.1685Z" fill="black"/>
<path id="Vector_28" d="M41.5083 32.5903C41.8862 32.5903 42.2685 32.4963 42.6106 32.2997C43.9458 31.5319 45.3567 30.8131 46.8046 30.1631C47.8182 29.7081 48.23 28.5997 47.7241 27.6874C47.2188 26.7754 45.9875 26.4053 44.9736 26.8598C43.3967 27.5678 41.8586 28.3514 40.402 29.1888C39.4477 29.7376 39.168 30.879 39.778 31.7379C40.1693 32.2894 40.8319 32.5903 41.5083 32.5903Z" fill="black"/>
<path id="Vector_29" d="M86.1418 34.4415C81.1983 32.5599 75.6167 31.5654 70.0003 31.5654C64.3839 31.5654 58.8022 32.5599 53.8587 34.4415C52.8155 34.8385 52.3272 35.9215 52.7685 36.8604C53.2101 37.7995 54.414 38.2385 55.4561 37.8416C59.8987 36.1506 64.928 35.2571 70.0003 35.2571C75.0725 35.2571 80.1019 36.1506 84.5444 37.8416C84.805 37.9407 85.0757 37.9877 85.3423 37.9877C86.1415 37.9877 86.9012 37.5645 87.232 36.8604C87.6731 35.9215 87.185 34.8385 86.1418 34.4415Z" fill="black"/>
<path id="Vector_30" d="M93.1965 30.1636C94.6443 30.8135 96.0553 31.5324 97.3905 32.3002C97.7325 32.4968 98.1148 32.5908 98.4927 32.5908C99.1692 32.5908 99.8314 32.2896 100.223 31.7386C100.832 30.8795 100.553 29.7383 99.5987 29.1895C98.1421 28.3521 96.6041 27.5685 95.0272 26.8605C94.013 26.4055 92.7822 26.7761 92.2766 27.6881C91.7711 28.6001 92.1829 29.7086 93.1965 30.1636Z" fill="black"/>
<path id="Vector_31" d="M86.1638 23.7482C80.9863 22.3905 75.5484 21.7021 70.0004 21.7021C64.4523 21.7021 59.0142 22.3905 53.8369 23.7482C52.7492 24.0334 52.1247 25.0579 52.4416 26.0366C52.7582 27.0153 53.8968 27.5774 54.984 27.2924C59.7889 26.0324 64.8409 25.3936 70.0004 25.3936C75.1599 25.3936 80.2119 26.0324 85.0168 27.2924C85.2082 27.3426 85.4012 27.3665 85.5913 27.3665C86.4797 27.3665 87.2983 26.8428 87.5592 26.0366C87.8761 25.0579 87.2516 24.0334 86.1638 23.7482Z" fill="black"/>
</g>
<defs>
<clipPath id="clip0_4_62">
<rect width="140" height="126" fill="white"/>
</clipPath>
</defs>
</svg>
